<svg xmlns="http://www.w3.org/2000/svg" xmlns:xlink="http://www.w3.org/1999/xlink" viewBox="0 0 170.57 139.56"><defs><style>.cls-1{fill:#d0b03c;}.cls-2{fill:#edd3b3;}.cls-3{fill:#bdaa92;}.cls-4{fill:#5c4e42;}.cls-5{fill:#a3b452;}.cls-6{fill:#748f3e;}.cls-7{fill:#526d3e;}.cls-8{fill:#fff;}.cls-9{fill:#d5969f;}.cls-10{fill:#c6696c;}.cls-11{fill:#c1b89a;}.cls-12{fill:#ead048;}.cls-13{fill:#f5e94d;}.cls-14{fill:#b99b66;}.cls-15{fill:#40351a;}.cls-16{fill:url(#名称未設定グラデーション_2);}.cls-17{fill:#9d1f27;}</style><linearGradient id="名称未設定グラデーション_2" x1="68.44" y1="103.01" x2="68.44" y2="60.51" gradientUnits="userSpaceOnUse"><stop offset="0" stop-color="#77161b"/><stop offset="1" stop-color="#9d1f27"/></linearGradient></defs><g id="レイヤー_2" data-name="レイヤー 2"><g id="レイヤー_5" data-name="レイヤー 5"><path class="cls-1" d="M137.13,35.18s4.2-1.58,6.08,1-.71,6.42-.71,6.42,4.47-1.89,5.83,1.94-2.3,5.94-2.3,5.94,4.18-.59,5.18,2.65a4.27,4.27,0,0,1-3.29,5.35s3.76,0,4.06,3.12-3.3,4.06-3.3,4.06,3.53,1.18,3,4.71-4.35,3.53-4.35,3.53S151.62,55.4,137.13,35.18Z"/><path class="cls-1" d="M117.45,11l.87-3.41a23.55,23.55,0,0,0,3.57-1c2-.75,1.06-2.12.22-2s-3.31.52-3.31.52S120,.3,119,0s-1.46,1.06-2,2.78-2.09,6.78-2.09,6.78Z"/><path class="cls-1" d="M129.47,17.75,135,12a25.3,25.3,0,0,0,3.82,1.06c2.21.44,2.15-1.31,1.34-1.71S136.83,10,136.83,10s3.72-3.65,3-4.42-1.91.14-3.4,1.37S129,13.36,129,13.36Z"/><path class="cls-2" d="M117,38.43a18.21,18.21,0,0,1,4.59,11.12c.29,6.77-2.11,10.68-3,11.53a9,9,0,0,1-4.32,2.39L133.62,71s4.35-6.77,2.59-17.36S126.67,35.49,122.56,34l-5.89,4.11Z"/><path class="cls-3" d="M121.5,43a.47.47,0,0,1-.38-.19.47.47,0,0,1,.11-.65,12.15,12.15,0,0,1,5.21-1.61.46.46,0,0,1,.52.4.47.47,0,0,1-.4.52,11.71,11.71,0,0,0-4.79,1.45A.47.47,0,0,1,121.5,43Z"/><path class="cls-3" d="M123,48.78a.48.48,0,0,1-.42-.26.46.46,0,0,1,.21-.62c.1,0,2.57-1.25,7.87-1.17a.47.47,0,0,1,0,.93h0c-5-.08-7.41,1.06-7.44,1.07A.46.46,0,0,1,123,48.78Z"/><path class="cls-3" d="M123.32,55a.47.47,0,0,1-.45-.37.45.45,0,0,1,.35-.55,38.47,38.47,0,0,1,9.18-.49.47.47,0,0,1,.45.49.45.45,0,0,1-.49.45,38.26,38.26,0,0,0-8.94.46Z"/><path class="cls-4" d="M94.43,27.25s-4.47-2.89-1.77-7,6.42-5.54,7.07-8.89c0,0,.15,2-2.89,5s-6,7-1.62,10.48C95.22,26.84,95.14,27.37,94.43,27.25Z"/><path class="cls-5" d="M148.33,73.68,132.74,71.2c2.58-3.76,3.29-10.88,3.29-10.88s.76-5.65-2.47-13.48-11-12.29-11-12.29a39.91,39.91,0,0,1-7.17,4.64c-3,1.24-9.48,3.18-15,.12s-4.3-6.41-4.3-6.41l0,0a5,5,0,0,1-3-3.07c-.71-2.79,1.61-3.41,1.61-3.41S95,22,98,21.36a2.63,2.63,0,0,1,3.35,2.3,3.39,3.39,0,0,1,3.36-2,2.44,2.44,0,0,1,.62.11l2.85-1.58s-.77-4.83,1.53-8.54,7.47-4.17,8.65.12a6.77,6.77,0,0,1,6.47-3.18c4.36.54,5.06,6.66,4.88,8.54,0,0,6.06-4.94,11,.18,0,0-.3,4.29-7,7.76,0,0,5-1.23,6,.76s-2.18,3.89-2.18,3.89,2.59-.53,3.06,1.65-3,3.59-3,3.59S145,44,147.39,55.14,148.33,73.68,148.33,73.68Z"/><path class="cls-6" d="M94.86,26.45h0a.36.36,0,0,1-.32-.38C94.6,25,95.12,21.57,98,21a3.16,3.16,0,0,1,2.58.45,3,3,0,0,1,1,1.31,3.65,3.65,0,0,1,3.25-1.47c2.7.19,3.52,3.65,3.55,3.8a.34.34,0,0,1-.26.42.36.36,0,0,1-.42-.26s-.74-3.11-2.92-3.26a3,3,0,0,0-3,1.78.34.34,0,0,1-.38.21.34.34,0,0,1-.29-.3,2.69,2.69,0,0,0-.92-1.67,2.48,2.48,0,0,0-2-.32c-2.36.45-2.8,3.49-2.88,4.42A.36.36,0,0,1,94.86,26.45Z"/><path class="cls-7" d="M133.15,23.07s-1.36-1.47-.77-2.41A7.94,7.94,0,0,1,139.56,18S137,22,133.15,23.07Z"/><ellipse class="cls-8" cx="122.47" cy="16.51" rx="4.09" ry="2.32" transform="translate(80.88 132.88) rotate(-78.01)"/><path class="cls-4" d="M121.82,13.87a1.51,1.51,0,0,0-.81.07,6.57,6.57,0,0,0-.82,2.09c-.47,2.21.17,4.21,1.43,4.48a1.41,1.41,0,0,0,.81-.07,6.57,6.57,0,0,0,.82-2.09C123.72,16.15,123.08,14.14,121.82,13.87Z"/><ellipse class="cls-8" cx="113.11" cy="16.51" rx="4.09" ry="2.32" transform="translate(73.46 123.72) rotate(-78.01)"/><path class="cls-4" d="M112.47,13.87a1.5,1.5,0,0,0-.81.07,6.57,6.57,0,0,0-.82,2.09c-.47,2.21.17,4.21,1.42,4.48a1.41,1.41,0,0,0,.81-.07,6.57,6.57,0,0,0,.82-2.09C114.36,16.15,113.72,14.14,112.47,13.87Z"/><ellipse class="cls-4" cx="104.2" cy="25.42" rx="0.82" ry="1.24" transform="translate(-2.35 13.12) rotate(-7.13)"/><ellipse class="cls-4" cx="98.37" cy="25.07" rx="1.24" ry="0.82" transform="translate(47.22 112.76) rotate(-74.04)"/><path class="cls-4" d="M108.67,28.37S116,24.89,122.85,26s18.59,4.36,23.6-1.94c0,0-3.64,6.43-15.83,4.3-10.06-1.77-13.36-2.18-21,1.06C109.67,29.43,108.43,29.78,108.67,28.37Z"/><path class="cls-8" d="M98.84,33.78s2.89,4.41,10.71,3.18A9.75,9.75,0,0,0,118,28.54S108.73,35.78,98.84,33.78Z"/><path class="cls-9" d="M117.52,30.59a9.6,9.6,0,0,1-8,6.37c-.61.09-1.19.15-1.75.18a7.37,7.37,0,0,0,2.92-4.65.13.13,0,0,1,0-.06c.48-3.45,1-6.89,3.4-7.33,1.63-.3,2.87,1.7,3.26,3.9A8.53,8.53,0,0,1,117.52,30.59Z"/><path class="cls-10" d="M114.87,28.45a.35.35,0,1,0-.69.1s.6,4.48-1.41,7.42a10.55,10.55,0,0,0,1.2-.71A13.67,13.67,0,0,0,114.87,28.45Z"/><path class="cls-5" d="M91.26,41.21a9,9,0,0,1-1.43,5c-1.43,2-4.54,3.31-8.76,2.12s-2.94-6.64-2.94-6.64c-1.82-2-2.26-6.77-.36-8,2.47-1.59,6.68,4.53,6.68,4.53Z"/><path class="cls-8" d="M154.34,97.92l0,0A15.18,15.18,0,0,0,158,90.33c3.06-14.24-11-16.71-11-16.71-8.12-22-28.71-12-28.71-12s-3.77-10.71-19-14.83-26.83,6-26.83,6S59.43,50.2,50.72,60s-3.41,21.42-3.41,21.42c-9.54-.12-18,7.18-18.24,19.07S36.77,117,36.77,117s-.9,12.47,12.83,17.42c13.06,4.7,25.83-4.24,25.83-4.24s10.18,12.95,28.66,7.18A18.26,18.26,0,0,0,114.4,130c1.15.79,9.68,6.08,22.64-1,13.14-7.15,9.18-20.83,18.18-23.48s14.65-2.3,14.65-2.3S157,101.09,154.34,97.92Z"/><path class="cls-11" d="M124.07,133.33a17.68,17.68,0,0,1-10.23-2.91.7.7,0,0,1,.85-1.11c.35.27,8.67,6.32,22-.94,6.77-3.69,8.84-9.15,10.66-14,1.61-4.23,3.12-8.23,7.65-9.56a60.07,60.07,0,0,1,9.42-2c-4-.94-9-2.47-10.64-4.46a.7.7,0,0,1,1.08-.89c2,2.44,11.59,4.48,15.11,5a.71.71,0,0,1,.58.77.69.69,0,0,1-.74.62c-.05,0-5.65-.31-14.41,2.27-3.87,1.14-5.14,4.48-6.74,8.71-1.82,4.8-4.08,10.77-11.31,14.71A27.72,27.72,0,0,1,124.07,133.33Z"/><path class="cls-11" d="M94.9,139.56a27,27,0,0,1-19.59-8.42c-2.59,1.66-14,8.27-25.95,4-12.62-4.54-13.3-15.41-13.29-17.7-1.6-1.09-7.92-6.12-7.7-17,.25-12.63,9-19.36,17.93-19.73-1.06-3.07-3.54-12.86,3.9-21.2,8.09-9.08,20-7.77,22.15-7.46,1.83-1.45,13.1-9.76,27.21-5.93,13.29,3.6,18,12.07,19.14,14.57,2.3-1,10-3.67,17.34-.69,5.14,2.07,9,6.45,11.52,13,1.46.34,6.51,1.78,9.45,6.15,2.06,3.06,2.62,6.86,1.66,11.31-1.5,7-5.3,9.69-8.23,10.72-4.82,1.69-10.05,0-12.08-1.61s-3.49-5.48-3.21-8.72A7.14,7.14,0,0,1,138.7,85a6.63,6.63,0,0,1,7.47.42A5.59,5.59,0,0,1,148.54,91a.7.7,0,0,1-1.35-.34,4.28,4.28,0,0,0-1.86-4.09,5.22,5.22,0,0,0-6-.31A5.79,5.79,0,0,0,136.54,91c-.24,2.78,1,6.08,2.71,7.51A12.51,12.51,0,0,0,150,99.87c3.76-1.32,6.23-4.58,7.32-9.69.88-4.07.39-7.51-1.45-10.24-3.06-4.55-8.87-5.63-8.93-5.64a.68.68,0,0,1-.53-.44c-2.36-6.39-6-10.62-10.86-12.57-8-3.25-16.81.91-16.9,1a.69.69,0,0,1-1-.4c0-.1-3.86-10.42-18.47-14.38S73.12,53.21,73,53.31a.71.71,0,0,1-.6.16c-.12,0-12.84-2.38-21.17,7S47.89,81,47.94,81.09a.7.7,0,0,1-.64,1h-.21c-8.47,0-17.09,6.28-17.33,18.38-.22,11.31,7.06,15.79,7.37,16a.69.69,0,0,1,.34.65c0,.49-.68,12,12.37,16.71,12.57,4.53,25.07-4.06,25.19-4.15a.7.7,0,0,1,1,.14c.41.51,10.12,12.49,27.9,6.94,7.58-2.36,10.57-7.28,11.75-11A18.41,18.41,0,0,0,113,109.64a17.19,17.19,0,0,0-12.89-6.46,12.65,12.65,0,0,0-10.21,4.19,11.69,11.69,0,0,0-1.43,12.72,6.53,6.53,0,0,0,6.81,3.67c2.84-.35,4.75-1.29,5.69-2.79a4.93,4.93,0,0,0,.45-3.82.7.7,0,1,1,1.32-.45,6.3,6.3,0,0,1-.59,5c-1.17,1.86-3.42,3-6.69,3.43a7.9,7.9,0,0,1-8.22-4.39,13.12,13.12,0,0,1,1.6-14.29,13.92,13.92,0,0,1,11.3-4.68,18.6,18.6,0,0,1,14,7A19.88,19.88,0,0,1,117,126.17c-1.28,4-4.51,9.35-12.66,11.9A31.56,31.56,0,0,1,94.9,139.56Z"/><circle class="cls-12" cx="143.92" cy="74.03" r="8.3"/><circle class="cls-13" cx="142.24" cy="74.03" r="4.94"/><circle class="cls-8" cx="139.59" cy="73.99" r="1.5"/><circle class="cls-8" cx="138.58" cy="70.86" r="0.87"/><path class="cls-5" d="M141.21,57.08a14.3,14.3,0,0,1,11.65-1.18c6.77,2.12,8,7.59,7.35,11.12a14.74,14.74,0,0,1-3.41,6.48c.18,6.12-5.52,8.28-7.68,8.79s-3.1-1.08-1.32-1.94c2.91-1.41,2.91-2.51,2.91-2.51a7.34,7.34,0,0,1-4.63,1.5c-2.56,0-3.24-2-.84-2.25,4.68-.58,4.32-2.56,4.32-2.56a6.71,6.71,0,0,1-3.35,1.14c-2.35.3-4.77.06-4.65-1.29s2.2-1.29,3.41-1.53c1.45-.28,3.09-.82,2.83-3s-1.81-2-3.44-2.34c-.93-.17-4.09.77-4.09-1s3.06-3,6.53-2.77Z"/><path class="cls-6" d="M153.15,68a.34.34,0,0,1-.27-.13s-2.83-3.59-6.1-3.75a11.52,11.52,0,0,0-3.86.41.35.35,0,0,1-.43-.23.34.34,0,0,1,.23-.44,12.36,12.36,0,0,1,4.1-.44c3.59.18,6.49,3.86,6.61,4a.35.35,0,0,1-.06.49A.36.36,0,0,1,153.15,68Z"/><path class="cls-5" d="M79.52,46.24a1.82,1.82,0,0,1,.94,1.85c-.13.8-.93,1-1.9.89A2.63,2.63,0,0,1,76.22,47c-.16-.7,0-1.72.87-1.74A4.71,4.71,0,0,1,79.52,46.24Z"/><path class="cls-6" d="M79,49.34a3.54,3.54,0,0,1-.45,0,2.67,2.67,0,0,1-.48-.08.35.35,0,0,1-.25-.42.36.36,0,0,1,.43-.26,2.29,2.29,0,0,0,.36.07c1.4.12,1.49-.4,1.52-.6.1-.58-.14-1-.8-1.51a.35.35,0,0,1,.41-.57,2.14,2.14,0,0,1,1.08,2.2C80.71,48.71,80.31,49.34,79,49.34Z"/><path class="cls-14" d="M81.09,50.43h0a.58.58,0,0,1-.58-.59l.42-29.92a.92.92,0,0,1,1-.9h0a.92.92,0,0,1,.83.94l-1.1,29.91A.58.58,0,0,1,81.09,50.43Z"/><path class="cls-5" d="M79.67,42.45c2.39,2.37,1.65,3.82-.26,3.84s-4-2.5-3.82-4.21a1.6,1.6,0,0,1,1.75-1.54C78,40.7,79.67,42.45,79.67,42.45Z"/><path class="cls-6" d="M79.38,46.64a3.56,3.56,0,0,1-2.17-.85.34.34,0,0,1-.06-.49.35.35,0,0,1,.49-.06A2.94,2.94,0,0,0,79.4,46c.72,0,1.21-.24,1.37-.62.23-.58-.27-1.56-1.34-2.63a.35.35,0,1,1,.49-.49c1.69,1.67,1.75,2.76,1.5,3.38a2,2,0,0,1-2,1Z"/><path class="cls-5" d="M80.15,36s3.35,6.35,0,6.62-4.85-7.33-2.38-8.92"/><path class="cls-6" d="M80,42.93a3.36,3.36,0,0,1-2.84-2.11.35.35,0,1,1,.62-.33c.36.69,1.17,1.84,2.36,1.74a1.12,1.12,0,0,0,1-.55c.7-1.27-.67-4.45-1.26-5.56a.35.35,0,0,1,.15-.47.35.35,0,0,1,.47.14c.23.45,2.26,4.4,1.25,6.23a1.77,1.77,0,0,1-1.53.9Z"/><path class="cls-14" d="M82.33,50.61h0a.58.58,0,0,1-.46-.69l5.8-29.36a.91.91,0,0,1,1.15-.7h0a.92.92,0,0,1,.65,1.08L83,50.16A.58.58,0,0,1,82.33,50.61Z"/><path class="cls-5" d="M91.23,42c.18-2.08-.44-4.09-2.74-4.39-3-.39-5.16.65-5.25,2.41S87,41.63,87.83,41.1Z"/><path class="cls-6" d="M85.82,41.81a4.44,4.44,0,0,1-2.18-.47A1.4,1.4,0,0,1,82.89,40a2.53,2.53,0,0,1,1.15-2,.35.35,0,0,1,.49.09.34.34,0,0,1-.09.48,1.85,1.85,0,0,0-.85,1.44.69.69,0,0,0,.41.68,5.05,5.05,0,0,0,3.65.06.35.35,0,0,1,.36.6A5,5,0,0,1,85.82,41.81Z"/><path class="cls-1" d="M121.57,118.85c-10.32.09-19.6,3.85-29.43,7.83-8.76,3.55-17.82,7.21-28,8.28a91.82,91.82,0,0,1-9.54.51c-25.93,0-38.3-11.57-42.42-16.55-4.93-6-6.95-13.87-5.67-22.26,1.14-7.55,4.9-14.4,9.58-17.46a31.52,31.52,0,0,1,5-2.6,2.41,2.41,0,0,0-.85-.83,2.37,2.37,0,0,0-3.56,1.8l-.05,0a3,3,0,0,0-4.35,2.68,2.76,2.76,0,0,0,.06.57,3.08,3.08,0,0,0-.68-.07A3.34,3.34,0,0,0,8.9,86l0,0a4,4,0,0,0-2.81,7.34H5.85a4,4,0,0,0-.77,7.86v.08a4,4,0,0,0,.84,7.85H6a4,4,0,0,0,3,7.35,4,4,0,0,0,4.89,6.17,3.9,3.9,0,0,0-.48,1.89,4,4,0,0,0,6.66,2.93,3.84,3.84,0,0,0-.24,1.35,4,4,0,0,0,7.22,2.3h0a3.08,3.08,0,0,0-.06.61,4,4,0,0,0,7.34,2.13,4,4,0,0,0,7.53,1.64h0a4,4,0,0,0,7.71.87h.15a4,4,0,0,0,7.46.1h.18A4,4,0,0,0,65,136l.29,0a4,4,0,0,0,7.41-1.35l.1,0a4,4,0,0,0,7.26-2.1l.09,0a4,4,0,0,0,7.18-2.35c0-.09,0-.18,0-.27h0a3.62,3.62,0,0,0,6.53-2.15,3.42,3.42,0,0,0,0-.46l.1,0a3.61,3.61,0,0,0,6.36-2.33,3.61,3.61,0,0,0,6.41-2.25,3.22,3.22,0,0,0,5.72-1.41,2.81,2.81,0,0,0,5-.95l.25,0a2.82,2.82,0,0,0,5.11-.17,2.56,2.56,0,0,0,4.42.68,2.19,2.19,0,0,0,3.9.7,2,2,0,0,0,1.95,1.6,2,2,0,0,0,1.34-.54,1.89,1.89,0,0,0,.57-1,38.73,38.73,0,0,0-13.17-2.61Z"/><path class="cls-1" d="M139.76,122.45s1.67-.79,4.85.13,4.3,3.7,5.52,6.64c1.09,2.64,2.55,3.31,3.72,3.56,0,0-7.57,1.59-11.83-1.76s-3.55-6.64-3.55-6.64a6.61,6.61,0,0,1,.19-1.43Z"/><path class="cls-5" d="M46.46,73.45c-9-2.76-22.47-.69-30.95,4.84C6,84.51-.22,105.61,11.36,119.61,20,130,37.82,138.81,64.27,136c21.55-2.25,37.91-15.94,57.31-16.1,12.38-.11,24.8,8.52,24.8,8.52C127,105.28,89.54,112.33,71.7,115.12a54,54,0,0,1-32-5.19c-10.2-4.84-7.26-15,1.73-16.6Z"/><path class="cls-8" d="M80,77.89a11.83,11.83,0,0,0-4.46-7.83,12.36,12.36,0,0,0,1.24-3.25C78.25,60.3,73.66,54,70.7,52.37a20.28,20.28,0,0,0-21,.43c-9.07,5.39-9.66,16.43-9.66,16.43s-18.37.2-14.66,20.89c0,0-8,8.11-4,19.49s16.79,9.21,21,7.11a14.41,14.41,0,0,0,6.93-8A19.16,19.16,0,0,0,67,106.54c8.28-5.7,6.16-15.63,6.16-15.63C77.3,89.67,81,84.33,80,77.89Z"/><path class="cls-11" d="M35.34,119.09A17.18,17.18,0,0,1,28.26,118a13,13,0,0,1-7.48-8.13c-3.71-10.48,2.55-18.39,3.9-19.94-1.12-6.64-.12-11.9,3-15.65,3.88-4.7,9.82-5.54,11.78-5.69.27-2.48,1.81-11.52,9.94-16.36A21,21,0,0,1,71,51.77c3.14,1.76,8,8.35,6.41,15.2a12.28,12.28,0,0,1-6.3,8.3A11.82,11.82,0,0,1,61,75.36c-3.59-1.55-5.53-4.63-5.18-8.24a7.55,7.55,0,0,1,5.61-6.79,5.62,5.62,0,0,1,4.69.74,6.37,6.37,0,0,1,2.26,4.21.71.71,0,0,1-.64.76A.7.7,0,0,1,67,65.4a5.11,5.11,0,0,0-1.71-3.21,4.29,4.29,0,0,0-3.56-.5,6.18,6.18,0,0,0-4.51,5.56,6.61,6.61,0,0,0,4.35,6.82,10.16,10.16,0,0,0,8.95,0,10.84,10.84,0,0,0,5.56-7.37c1.41-6.16-2.91-12.09-5.72-13.67a19.64,19.64,0,0,0-20.25.42c-8.65,5.15-9.32,15.76-9.32,15.87a.69.69,0,0,1-.69.66c-.07,0-7.18.15-11.37,5.22C25.86,78.63,25,83.63,26.12,90a.7.7,0,0,1-.19.62c-.08.08-7.66,8-3.84,18.76a11.63,11.63,0,0,0,6.69,7.3c4.9,2,10.8.7,13.38-.58A13.47,13.47,0,0,0,49,107.62a9.27,9.27,0,0,0-1.81-8c-2.35-3.1-5.75-4.42-9.1-3.53a6.83,6.83,0,0,0-5.22,5.51A5,5,0,0,0,34.21,106a6.14,6.14,0,0,0,5.09,1.57.69.69,0,0,1,.79.59.7.7,0,0,1-.59.79,7.54,7.54,0,0,1-6.28-2,6.33,6.33,0,0,1-1.75-5.58,8.19,8.19,0,0,1,6.24-6.68c3.92-1,7.87.47,10.57,4a10.78,10.78,0,0,1,2.07,9.19,15,15,0,0,1-7.57,9.4A19.59,19.59,0,0,1,35.34,119.09Z"/><path class="cls-8" d="M25.81,30.16c-1-1.62-2.14-1.14-4.13-1.13l-5.78,0c0-1,0-1.74,0-2a5.43,5.43,0,0,0-1-3.64,3.59,3.59,0,0,0-3.65-.86c-2,.55-.58,5-.51,6,0,.15,0,.33,0,.54h-.62c-2.56,0-7,.17-8.69.31s-1.7,1.84-1,3.86S2.8,41.43,2.8,41.43c.93,1.88,3.21,1.2,7.05.84L11,42.18c0,1.51,0,2.92,0,3.94,0,1.69-.46,3.72.29,4.46s3.65.52,3.78-1.24.44-5.54.44-7c0-.09,0-.22,0-.37,1.86,0,3.59,0,5,.14,2.78.19,4-.83,4.47-3.27S26.82,31.77,25.81,30.16ZM10.4,38.75C9,39,7.56,39.17,6.91,38s-2.59-4.65-1.1-5.27a18.89,18.89,0,0,1,5.12-.43c0,.76.07,1.51.09,2.16,0,.81,0,2.41,0,4.22Zm9.4-.65c-.6.06-2.38.18-4.22.31.07-1.87.15-4.11.22-6.11,3-.09,5.05-.21,5.61.38S21.22,38,19.8,38.1Z"/><path class="cls-8" d="M38.74,28.68c.24.41.47.76.65,1,1.19,1.6,2,.76,2.44.23a2.41,2.41,0,0,0,0-1.37l4.12.07c0,.43-.09.74-.09.84a1.39,1.39,0,0,0,1.91,1.07,2.65,2.65,0,0,0,1.3-1.84c3.24.07,6.17.13,6.72.06,1.06-.14.92-2.13-.72-3.09-1-.6-2.91-.39-5.11-.13.32-1.26.52-2.53.05-2.83-.86-.53-3.29-.46-3.36.53,0,.41-.17,1.48-.32,2.62l-.47,0c-1.27,0-3,0-4.72-.11a16,16,0,0,0-.74-2.15c-.39-.76-1.91-.87-3.22-1-.87-.08-.59,1.32.05,2.93-2.07-.12-3.8-.23-4.46-.23-1.58,0-1.43,1.94-.46,2.95C33.49,29.52,35.85,29,38.74,28.68Z"/><path class="cls-8" d="M56.7,36c-.74,0-2.35,0-4.52.07.07-.56.12-1.09.15-1.51,1.22.07,2,0,2.06-.35.27-1.3-.2-3.09-1.64-3.09s-7.11,0-9.08.07-9.47.07-10.39-.07-.79.62-.79.62a2.43,2.43,0,0,0,1.84,2.47,2.77,2.77,0,0,0,.77.13c0,.44.06,1,.11,1.57l-5.17,0c-1.71,0-2.09.47-1.95.82,1,2.62,3.35,2.2,7.41,1.79a13.25,13.25,0,0,0,.44,2l-.62,0c-2.31-.28-2.57.07-2.7.75,0,0,.39,2,1.05,2.2s3.36-.21,6.65-.41c.42,0,1,0,1.54,0,0,.54,0,1.13,0,1.7l-2.91,0c-2.37,0-7.46-.3-7.53.48a2.43,2.43,0,0,0,1.78,2.75c1.48.12,5.32-.38,8.56-.44,0,.08,0,.16,0,.23-.07,1-.53,2.54,1,3.09s2.44.55,2.63-.89a22.87,22.87,0,0,0,.07-2.39c3.89.08,9.09.24,10.2.19,1.44-.07.72-2.47-.27-2.67a16.77,16.77,0,0,0-4.08-.24c-.87,0-3.31,0-5.85,0V43c3.69.18,7.81.5,8.62.32,1.25-.28.33-2.27-.33-2.68a5.12,5.12,0,0,0-2.22-.11c.13-.53.26-1.22.38-2,2.85.14,5.23.24,6.12.16C60.14,38.5,57.87,36,56.7,36ZM49,34.19c0,.44-.08,1.1-.14,1.85l-1,0L45.3,36c0-.86,0-1.58,0-2.11.55,0,1.08,0,1.57.09Zm-10.47,0c1-.07,2.16-.16,3.29-.22,0,.52,0,1.21.05,2l-3.36,0C38.47,35.29,38.47,34.71,38.5,34.2Zm.42,6.34c-.11-.58-.22-1.42-.3-2.35l.8,0c.72,0,1.56,0,2.46,0,0,.9,0,1.77,0,2.47Zm9.3.15-2.87,0c0-.83,0-1.64,0-2.42l3.27.14A18.5,18.5,0,0,1,48.22,40.69Z"/><path class="cls-15" d="M131.23,74.39a13.64,13.64,0,0,0-2.27-2,7.5,7.5,0,0,0,.66-1.94,5.56,5.56,0,0,0,.09-.82,7.09,7.09,0,0,0-5.2-7c-.25-.07-1-.38-1.47-.58a19.9,19.9,0,0,0-3.77-1.31,7.6,7.6,0,0,0-8.82,5.22,6,6,0,0,0-.35,1.7,8.88,8.88,0,0,0,.69,4c-.87.41-1.68.84-2.44,1.28a7.71,7.71,0,0,0-3.37,4h-.23A6.92,6.92,0,0,0,99,80.53a42.94,42.94,0,0,0,.29-5,67,67,0,0,0-.49-7.88,8.73,8.73,0,0,0-9.09-7.84,8.43,8.43,0,0,0-6,3.07,9.18,9.18,0,0,0-1.87,3.79,8.36,8.36,0,0,0-1.11-1.71,8.08,8.08,0,0,0-11.7-.84h0a8,8,0,0,0-4.8-6,41.45,41.45,0,0,0-7.09-2.36c-4.31-.81-8.09,1.46-9.63,5.81a6,6,0,0,0-.33,1.67,9.73,9.73,0,0,0,.9,4.86l-.7.25a8.33,8.33,0,0,0-5,6.35,7.47,7.47,0,0,0-1.24.09,7.4,7.4,0,0,0-6.12,6.3,1.7,1.7,0,0,0-.32-.1,4.93,4.93,0,0,0-5.57,2.24c-2,3.29-4.31,5.37-6.3,5.56a3.51,3.51,0,0,1-.64,0c-.58-.86-1.62-3.42-1.62-8.36,0-2.47.16-5.59.48-9.26a12.22,12.22,0,0,0-3-9.39,9.4,9.4,0,0,0-7-3.08h-.06a7.82,7.82,0,0,0-7.24,4.58,16.11,16.11,0,0,0-1.3,5.89c-.25,3.15-.38,6.18-.38,9,0,10.77,1.5,25.37,14.41,27.87a25,25,0,0,0,4.65.46,16,16,0,0,0,10.6-4.12c.14.19.29.37.45.56A9.32,9.32,0,0,0,39.36,106c.2,0,.41,0,.62,0a10.1,10.1,0,0,0,5.83-2.16,9.2,9.2,0,0,0,.93.39,5.15,5.15,0,0,0,.73,1.58A4.94,4.94,0,0,0,51.54,108a5,5,0,0,0,2.06-.45c5.52-2.53,13.08-6,16.81-12.32a22.85,22.85,0,0,0,2.33-5.45,4.54,4.54,0,0,0,.5.12,7.36,7.36,0,0,0,5.86-1.24,48.18,48.18,0,0,1-6.57,9.76,4.95,4.95,0,0,0,3.78,8.14,4.86,4.86,0,0,0,1.45-.22,30.68,30.68,0,0,0,13.15-7.75,6.77,6.77,0,0,0,1.41,1.87A6.59,6.59,0,0,0,95.6,102a4.95,4.95,0,0,0,6.82,5.42,16.11,16.11,0,0,0,5.64-3.94,14,14,0,0,0,3.64-.89,4.93,4.93,0,0,0,4.55,3,4.92,4.92,0,0,0,2.25-.55c2.67-1.36,9.26-5.12,12.87-10.49a18.7,18.7,0,0,0,3.33-11h0A13.31,13.31,0,0,0,131.23,74.39ZM116.46,86.14c.3-.16.58-.33.86-.5a9.81,9.81,0,0,1,1.55-.83l.24,0h.25a14.65,14.65,0,0,1-1.46,4.55A11,11,0,0,0,116.46,86.14ZM53.93,91.6c-.11-.1-.23-.21-.36-.31l.18-.14a7.28,7.28,0,0,0,2-8.39l.23,0a9.08,9.08,0,0,1,1.34,0,1,1,0,0,1,.5.16.35.35,0,0,1,0,.11,16.08,16.08,0,0,1-3.31,9.25A6.85,6.85,0,0,0,53.93,91.6Z"/><path class="cls-8" d="M78.65,85.47c2-2.55,3.69-4.67,5.13-6.28a2.34,2.34,0,0,0-2.49-3.78l-1.49.49c0-1.32.16-2.88.35-4.65a6.22,6.22,0,0,0-1.39-4.65,5.55,5.55,0,0,0-3.89-2A5.44,5.44,0,0,0,70.81,66a6.21,6.21,0,0,0-2,4.42c0,1.43,0,2.8,0,4.12a14.67,14.67,0,0,0-1-1.37,10.39,10.39,0,0,0-4.69-3.08,4.41,4.41,0,0,0,3.32-3.49,5.3,5.3,0,0,0-3.21-6.14,37.08,37.08,0,0,0-6.53-2.19c-3.06-.58-5.56,1-6.68,4.11a3.15,3.15,0,0,0-.19.94c-.2,3.79,1.74,5.42,3.41,6.12a24.5,24.5,0,0,0-4.9,1.3,5.79,5.79,0,0,0-3.25,6.63v0a5.69,5.69,0,0,0,.36,1l-.18-.15a4.74,4.74,0,0,0-6.85,1.19,4.93,4.93,0,0,0-.64,3.94c.32,1.25.63,2.74.89,4.38.07.51.12.9.15,1.23a7.55,7.55,0,0,0-3.45,1.34,25.69,25.69,0,0,0,.44-4.59,2.34,2.34,0,0,0-4.36-1.2C29,88.65,26,91.08,23.12,91.35A6.91,6.91,0,0,1,21,91.18c-.64-.25-3-2.84-3-10.79,0-2.54.16-5.74.49-9.49a9.79,9.79,0,0,0-2.3-7.39,6.81,6.81,0,0,0-5-2.24h0c-5.32,0-5.76,5.46-6,8.07-.25,3.08-.37,6-.37,8.79,0,15.65,3.9,23.69,12.29,25.31a22.37,22.37,0,0,0,4.16.41,13.76,13.76,0,0,0,11-5.77l.25-.36a7.37,7.37,0,0,0,1.74,3.44,6.67,6.67,0,0,0,5.13,2.28l.47,0a7.29,7.29,0,0,0,5.28-2.48,6.47,6.47,0,0,0,.43-.51l.24.22A4.7,4.7,0,0,0,49.41,102a2.34,2.34,0,0,0,2.12,3.33,2.26,2.26,0,0,0,1-.22c5.21-2.39,12.34-5.66,15.66-11.27a21,21,0,0,0,2.76-8.33,4.85,4.85,0,0,0,7.72-.07ZM52.22,93.56a19.21,19.21,0,0,0-4.6-3c0-.15,0-.31,0-.48l.93.1a4.61,4.61,0,0,0,3.49-1,4.72,4.72,0,0,0,.31-6.93,4.63,4.63,0,0,0-1.14-.83,5.55,5.55,0,0,0,1-.26,10.43,10.43,0,0,1,5.46-1,3.68,3.68,0,0,1,1.8.71,2.87,2.87,0,0,1,1,2.16c-.2,6-3,10.21-6.67,14.27A4.8,4.8,0,0,0,52.22,93.56Z"/><path class="cls-8" d="M129.28,76.12a11,11,0,0,0-4.38-3,4.68,4.68,0,0,0,2.16-3.2,1.72,1.72,0,0,0,0-.39,4.48,4.48,0,0,0-3.29-4.42c-.39-.11-1.12-.42-1.77-.69a17.58,17.58,0,0,0-3.26-1.15,5,5,0,0,0-5.88,3.56,3,3,0,0,0-.2.92c-.13,2.86,1.17,4.3,2.4,5a24.93,24.93,0,0,0-5.46,2.42,5.26,5.26,0,0,0-2.55,4.86,4.12,4.12,0,0,0-2.23-.56,4.25,4.25,0,0,0-3,1.51,4.56,4.56,0,0,0-1,3.5l0,.28a10.07,10.07,0,0,0-1.12.71,3.73,3.73,0,0,0-.36-.43,4,4,0,0,0-2.9-1.21,5,5,0,0,0-.66.08,37.07,37.07,0,0,0,.92-8.44,65.93,65.93,0,0,0-.47-7.57,6.11,6.11,0,0,0-6.34-5.55,5.9,5.9,0,0,0-4.14,2.14,6.7,6.7,0,0,0-1.46,5.07,61.81,61.81,0,0,1,.45,6.93c0,7.71-3.34,15.41-10.21,23.54a2.36,2.36,0,0,0-.17,2.81,2.33,2.33,0,0,0,2,1,2.25,2.25,0,0,0,.68-.11c7.06-2.17,12.36-6.24,15.67-11.89,0,1.09,0,2.28.08,3.56a4.22,4.22,0,0,0,1.34,3,3.9,3.9,0,0,0,2.92,1,4,4,0,0,0,3.55-2.84,6.83,6.83,0,0,1,.32-.87,19,19,0,0,1-2.39,5.87,2.33,2.33,0,0,0,.22,2.76,2.35,2.35,0,0,0,2.7.62,13.22,13.22,0,0,0,5.42-4.11,3.58,3.58,0,0,0,.57,0c6.63-.58,8-4.84,8.25-7.33h0a9,9,0,0,0-2.6-7.58,9.41,9.41,0,0,0-1.75-1.33,5.2,5.2,0,0,0,3.43-.58c.44-.24.85-.49,1.25-.73a9.32,9.32,0,0,1,2.27-1.13,2.8,2.8,0,0,1,1.13,0l.11,0a3.47,3.47,0,0,1,1.81.66,1.23,1.23,0,0,1,.59.86l0,.13a1.32,1.32,0,0,1,.09.73c-.48,5.4-4.1,10.08-7.61,14.6a2.35,2.35,0,0,0,2.92,3.53c2.49-1.28,8.63-4.77,11.9-9.63a16.13,16.13,0,0,0,2.89-9.56h0A10.8,10.8,0,0,0,129.28,76.12Z"/><path class="cls-16" d="M117.16,71.11a12.91,12.91,0,0,0,5.13.53,2.71,2.71,0,0,0,2.47-2.16,2.17,2.17,0,0,0-1.58-2.1c-1.21-.34-3.56-1.55-4.83-1.8-1.69-.32-2.71.56-3.26,2.07a.85.85,0,0,0,0,.22C115,69.46,115.47,70.7,117.16,71.11ZM45,92.06a16.08,16.08,0,0,0,.3-4.51c1,0,2.14.15,3.55.32A2.33,2.33,0,1,0,49,83.22c-1.39.08-2.75.14-4.1.2q-.08-.86-.15-1.59A2.45,2.45,0,0,0,42,79.64a2.5,2.5,0,0,0-2,3.14c.34,1.33.66,2.88.94,4.64a21.92,21.92,0,0,1,.27,3.92A8.48,8.48,0,0,0,40,91.25a5.42,5.42,0,0,0-3.71,1.3,4.44,4.44,0,0,0-1.62,3.59A5.08,5.08,0,0,0,36,99.6a4.39,4.39,0,0,0,3.72,1.49,5,5,0,0,0,3.67-1.71,4.46,4.46,0,0,0,1.18-2.61A14.75,14.75,0,0,1,47.42,99a2.29,2.29,0,0,0,3.52-.24l.11-.16a2.44,2.44,0,0,0-.38-3.27A16.36,16.36,0,0,0,45,92.06Zm-5.51,5.21a1.18,1.18,0,0,1-.94-.27,1.07,1.07,0,0,1-.24-1c.06-.71.5-1.07,1.31-1.07s1,.24,1,.72C40.65,96.71,40.27,97.24,39.51,97.27ZM54.77,67.52a20.68,20.68,0,0,0,5.67.63c1.56-.05,3.36-.31,3.69-2.05a3,3,0,0,0-1.87-3.48,36.74,36.74,0,0,0-6-2c-2.16-.4-3.4.78-4,2.59a.94.94,0,0,0-.06.28C52,65.37,52.6,67,54.77,67.52ZM23.34,93.69a9.57,9.57,0,0,1-3-.27c-2-.64-4.66-4.45-4.66-13,0-2.62.17-5.86.5-9.69.32-3.66-1.72-7.11-5-7.09-2.9,0-3.38,2.71-3.64,5.91q-.36,4.56-.36,8.61c0,16.17,4.13,21.8,10.39,23a19.53,19.53,0,0,0,3.72.37,11.41,11.41,0,0,0,9.12-4.84c1.92-2.56,3.06-6.94,3.08-11C30.72,90.28,27.18,93.32,23.34,93.69Zm104.2-16a9.92,9.92,0,0,0-5.32-2.94,8.66,8.66,0,0,0-2-.29c-3.46-.09-6.32,1-9.45,2.79a2.92,2.92,0,0,0-1.2,3.49l0,.06a2.81,2.81,0,0,0,4,1.31A18,18,0,0,1,117.67,80a5.16,5.16,0,0,1,2-.09,5.92,5.92,0,0,1,3,1.12,3.52,3.52,0,0,1,1.44,2.12,3.64,3.64,0,0,1,.19,1.69c-.54,6.09-4.46,11.15-8.09,15.83,3.93-2,8.58-5.22,11-8.85a13.73,13.73,0,0,0,2.49-8.29A8.44,8.44,0,0,0,127.54,77.68Zm-19.8,8.37a.94.94,0,0,1-.85-1V83.89a2,2,0,0,0-2-2,2.07,2.07,0,0,0-1.85,2.38l.15,1.19a1.06,1.06,0,0,1-.64,1.1,8.55,8.55,0,0,0-4.75,5.55l.26-4a1.66,1.66,0,0,0-1.63-1.85,1.73,1.73,0,0,0-1.61,1.86q.12,2.88.2,7.37a1.65,1.65,0,0,0,3.23.53,9.74,9.74,0,0,1,2-3.63c1-1,2.44-2.17,3.13-1.79.34.12.23,1,.22,1.54a20.85,20.85,0,0,1-3.17,10.82q6.47-2.77,6.58-10.17c0-.79-.19-2.11.14-2.37s1.33.12,1.87.66a3.4,3.4,0,0,1,.94,2.68q0,2.6-2.82,4.92c3.79-.33,5.83-2.06,6.13-5.21a6.68,6.68,0,0,0-1.91-5.69A5.55,5.55,0,0,0,107.74,86.05ZM82,77.63l-4.49,1.49A41.16,41.16,0,0,1,77.82,71a3.58,3.58,0,0,0-3.11-4.08,3.5,3.5,0,0,0-3.55,3.59A47.41,47.41,0,0,0,72.22,83,2.56,2.56,0,0,0,76.79,84Q79.8,80.13,82,77.63Zm8-12.91h0a4,4,0,0,0-3.43,4.59,62.31,62.31,0,0,1,.47,7.21c0,9.29-4.47,17.6-10.76,25.06,11.14-3.43,18-12.09,18-26.08a63.45,63.45,0,0,0-.45-7.3A3.78,3.78,0,0,0,90,64.72Zm-24,10c-1.58-1.81-3.28-2.35-5.42-2.92a8,8,0,0,0-2-.28A23.09,23.09,0,0,0,49.12,73a3.5,3.5,0,0,0-1.8,3.8.24.24,0,0,0,0,.08,3,3,0,0,0,4.07,2.11,13.65,13.65,0,0,1,4.4-1.14,12.74,12.74,0,0,1,2.18,0A5.92,5.92,0,0,1,60.86,79a5.13,5.13,0,0,1,2,4.15c-.29,8.79-5.33,14-11.32,19.91,5.17-2.37,11.69-5.37,14.62-10.34a18.79,18.79,0,0,0,2.48-11.51A10.51,10.51,0,0,0,66,74.73Z"/><path class="cls-8" d="M153.37,91.84l-.08-.23c-.28-.85-1.42-1-1.72-1.07a1.47,1.47,0,0,0-.63-.16,3.07,3.07,0,0,0-1.17-.56l-.86-.22a26.08,26.08,0,0,1-3.33-1.17,1.21,1.21,0,0,0-.63-.23l-1.07-.31a15.22,15.22,0,0,0-1.73-.46l-.22,0a1,1,0,0,0-.34-.05,1.7,1.7,0,0,0-1,.25l-.32.16a1.06,1.06,0,0,0-.49.55l-.21.53c-.31.77-1.25,3.53-1.37,4.07a1.85,1.85,0,0,1-.06.25,1,1,0,0,1,.13-.24c-.13.2-.45,1-2.92,8.19-.56,1.64-1,2.79-1.07,3a2.1,2.1,0,0,0-.14.35c0,.13-.08.29-.12.44s-.18.67-.27.93a2.56,2.56,0,0,0-.2,1.09v0a2.53,2.53,0,0,0,0,1l0,.25a1,1,0,0,0,.69.8l1.29.45a12.55,12.55,0,0,0,1.75.54.89.89,0,0,0,.29.15l.34.12a2.13,2.13,0,0,0,.4.1,4.2,4.2,0,0,0,1.68.51,22.86,22.86,0,0,0,2.72,1,16.45,16.45,0,0,0,2.9.86,2.38,2.38,0,0,0,.38,0l.29,0a1.06,1.06,0,0,0,.85-.7l.22-.66a5.2,5.2,0,0,0,.32-1.29,3.86,3.86,0,0,0,.43-1.06,6.63,6.63,0,0,0,.24-.86h0l.06-.21a2.83,2.83,0,0,0,.11-.59,5,5,0,0,0,.7-1.6,17.72,17.72,0,0,0,.78-2.91,1.65,1.65,0,0,0,.41-.75l0-.14a.61.61,0,0,1-.11.17,3.89,3.89,0,0,0,.56-1.71c0,.11,0,.18,0,.19a2.42,2.42,0,0,1,.1-.38,4.51,4.51,0,0,0,.16-.84,2.57,2.57,0,0,0,.48-.84c.16-.39.39-1,.84-2.33.32-.88.56-1.57.63-1.74a5.93,5.93,0,0,0,.25-.83C153.53,93.16,153.76,92.35,153.37,91.84Z"/><path class="cls-17" d="M143.38,96a1.56,1.56,0,0,0-.77-.08.08.08,0,0,1-.08-.1c.05-.15.08-.27.1-.33l.05-.16a.11.11,0,0,1,.14-.06l.1,0c.37.18.71.21.87.06a.8.8,0,0,0,.16-.73,2,2,0,0,0-.81-.34.11.11,0,0,1-.08-.15l.17-.55a.1.1,0,0,1,.13-.06,6.12,6.12,0,0,0,.73.2c.34,0,.48-.43.48-.68a.45.45,0,0,0-.36-.45l-.14,0a.06.06,0,0,1,0-.11c.35-.25.6-.65.55-.82a.66.66,0,0,0-.51-.44c-.24-.05-.39.34-.46.54a1.92,1.92,0,0,1-.33.47.16.16,0,0,1-.17,0h0a.16.16,0,0,1-.11-.15,7.57,7.57,0,0,1,0-.83c0-.31-.08-.51-.34-.53a.44.44,0,0,0-.52.38,1.69,1.69,0,0,0,.17.79,0,0,0,0,1-.06.06,3.17,3.17,0,0,0-.8-.16c-.41.07-.56.9-.29,1.08a2.51,2.51,0,0,0,.9.28.1.1,0,0,1,.08.13c0,.16-.09.36-.15.57a.11.11,0,0,1-.14.09,5.76,5.76,0,0,1-.62-.2c-.25-.11-.49-.07-.56.38s.38.41.78.55l.21.08a.11.11,0,0,1,.06.13c0,.09-.05.17-.07.24l-.15.47a.21.21,0,0,1-.24.15,10.9,10.9,0,0,0-1.09-.14c-.26,0-.37.34-.45.64,0,0-.17.51,0,.73s.89-.2,1.21-.22h.09a.07.07,0,0,1,.07.08,3.29,3.29,0,0,1-.2.47,2.17,2.17,0,0,1-1.13,1.08c-.36.11-.47.21-.24.33a1.87,1.87,0,0,0,2.16-.75,9.21,9.21,0,0,0,.48-1.16.24.24,0,0,1,.18-.14c.32,0,.61,0,.78-.08C143.67,96.46,143.56,96.08,143.38,96Z"/><path class="cls-17" d="M148.78,98.17c.26-.89,1.3-3.52,1.41-4.16a.85.85,0,0,0-.53-1.05c-.32-.11-1.09-.41-1.54-.51s-.58.12-.58.12c0-.28-.41-.53-.84-.63a5.67,5.67,0,0,0-1.65-.27c-.34.08-.34.86-.3,1.13s.3.3.59.37a1.66,1.66,0,0,1,.6.33,7.87,7.87,0,0,1-.55,2.1c-.17.5-.86,2.81-.94,3a.41.41,0,0,1-.53.24c-.21-.08-.51-.36-.77-.29s.35.75.51,1a1.17,1.17,0,0,0,1,.5c.36,0,.62-.74.75-1.16s1.52-4.49,1.57-4.72.19-.73.41-.74a2.3,2.3,0,0,1,1.12.62,7.66,7.66,0,0,1-.37,2c-.13.43-.84,3.08-1.1,3.56s-.62.25-.93.15-.41.06-.19.38a2.2,2.2,0,0,0,1.43.86C147.94,101.05,148.53,99.07,148.78,98.17Z"/><path class="cls-17" d="M145.12,95.23c.36-.26.13-.64-.1-.88s-.46-.34-.56-.25a.57.57,0,0,0,0,.53C144.5,94.8,144.77,95.5,145.12,95.23Z"/><path class="cls-17" d="M143.81,97.37c.38.47.88-.42,1-.91s-.08-.55-.2-.47-.62.48-.9.72C143.75,96.71,143.43,96.89,143.81,97.37Z"/><path class="cls-17" d="M147.73,96.16c.36-.26.2-.66,0-.9s-.46-.28-.56-.19-.07.35,0,.52S147.38,96.43,147.73,96.16Z"/><path class="cls-17" d="M147.44,97.33c.16-.48-.15-.56-.27-.49a4.44,4.44,0,0,0-.75.74.38.38,0,0,0,0,.52C146.69,98.61,147.28,97.81,147.44,97.33Z"/><path class="cls-17" d="M140,100.67c.4.33,1.09.2,1.2-.22,0-.21-.29-.5-.59-.71a3.42,3.42,0,0,0-1.09-.61c-.15,0-.24.21-.19.54A1.68,1.68,0,0,0,140,100.67Z"/><path class="cls-17" d="M141.22,103.17l-.67-.23a.07.07,0,0,1,0-.13c.22-.06.52-.16.54-.31s-.33-.45-.33-.45c.48.11,1-.09.79-.43s-.25-.25-.63-.3-1.37-.38-1.75-.48-.57-.44-.77-.43-.29.34-.26.7.45.44.45.44a1,1,0,0,0,.09.71.08.08,0,0,1-.1.11c-.47-.16-1.13-.51-1.27-.34s.18.87.5,1.08a19.36,19.36,0,0,0,2,.33c.72.18,1.18.69,1.53.52S141.52,103.26,141.22,103.17Zm-1-.93a.89.89,0,0,1-.43.25c-.14,0-.49-.37-.32-.71a4.7,4.7,0,0,1,.47.13C140,102,140.28,102.14,140.19,102.24Z"/><path class="cls-17" d="M140.38,104.13c-.18-.3-.78-.29-1.31-.45s-.66-.23-.83-.18-.25.07-.38.32a18.17,18.17,0,0,1-.64,1.71,2,2,0,0,1-.53.69c-.18.12-.28.34.18.5.27.1.46.22.76.07s.47-.81.55-.9.71.08.66.25c-.11.45-.45.77-.39,1s.77.44.94.38.14-.09.22-.38S140.56,104.44,140.38,104.13Zm-1.3,1.31c0,.12-.28,0-.41,0s-.31-.1-.26-.3.12-.18.12-.18a2.49,2.49,0,0,1,.6.17C139.19,105.18,139.13,105.32,139.08,105.44Zm.1-.69c-.17,0-.62-.08-.6-.22s0-.31.11-.3l.5.13c.12,0,.24.06.2.19S139.29,104.76,139.18,104.75Z"/><path class="cls-17" d="M145.86,107.35c.08-.54-.15-.68-.21-.38a2.19,2.19,0,0,1-.83,1.14,5.77,5.77,0,0,1-2.68-.88c-.48-.42.21-1.75.32-2.07s.36-.28.78-.16,1.64.43,1.82.2.49-1.21.32-1.47-.59-.27-1.07-.4-1-.27-1.05-.39a.88.88,0,0,1,.08-.26.18.18,0,0,1,.2-.09c.43.12,1,.3,1.25.33s.27-.33.2-.59-.26-.18-.59-.26c-.16,0-.36-.11-.53-.17a.21.21,0,0,1-.14-.25,1.25,1.25,0,0,0,.13-.67c-.12-.28-.78-.52-1-.58s-.28.59-.37,1.09-.58,1.36-.63,1.67.73.42,1.55.59.54.27.56.54-.14.24-.78.12-1-.43-1.34-.33-.83,1.86-1,3.14,3,2.32,4.07,2.16S145.77,107.9,145.86,107.35Z"/><path class="cls-17" d="M144.07,107c-.31-.09-1.09-.28-1.09-.28-.5.13.12.54.54.67s.79.21,1,.08S144.39,107.13,144.07,107Z"/><path class="cls-17" d="M143.63,106.68c.38.11.72.19.91.07s-.12-.34-.41-.42l-1-.25C142.69,106.19,143.25,106.56,143.63,106.68Z"/><path class="cls-17" d="M143.87,106c.31.09.58.15.74,0s-.08-.33-.31-.39l-.8-.19C143.11,105.6,143.56,105.93,143.87,106Z"/><path class="cls-17" d="M135.39,105.26a2.84,2.84,0,0,1,.19-.4,3.7,3.7,0,0,0,.31-.74,3.9,3.9,0,0,1,.13-.47.56.56,0,0,0,.07-.26c0-.12,1.11-3.47,1.2-3.58s.24-.58.46-1.21a10.88,10.88,0,0,1,.59-1.51,4.85,4.85,0,0,0,.28-.67c0-.17.14-.49.22-.73a5.22,5.22,0,0,0,.2-.87,2.71,2.71,0,0,1,.48-1.25,8.39,8.39,0,0,0,.72-2,5.29,5.29,0,0,1,.45-1.28.81.81,0,0,0,.09-.31.5.5,0,0,1,.13-.32.39.39,0,0,0,.11-.17c0-.16.1-.21.35-.29.44-.14.51-.12.59.13l.07.21.19-.08c.15-.06.22-.06.25,0a.11.11,0,0,0,.15,0c.06,0,.11,0,.11,0s4.23,1.55,6.35,2.23c.83.26,1,.29,1.1.23s.17-.06.3,0l.25.21c.06,0,.11.1.11.13s.12.11.27.16a1,1,0,0,1,.31.16,9,9,0,0,1-.56,2c-.22.69-.4,1.27-.4,1.3s-.18.54-.42,1.15a6.4,6.4,0,0,0-.48,1.5,5.66,5.66,0,0,1-.39,1.28,16.75,16.75,0,0,0-.74,2.11,4.16,4.16,0,0,1-.22.64c-.13.33-.43,1.19-.66,1.91-.93,2.88-1.35,4.13-1.47,4.33a.82.82,0,0,0-.12.45h0a2,2,0,0,1-.39,1.06.55.55,0,0,1-.2.11,15.29,15.29,0,0,1-2.8-.82l-2.2-.74-1-.35-.72-.24-.68-.23c-1.42-.53-2.4-.87-2.64-.91s-.31-.06-.35-.18a.92.92,0,0,1,.07-.67,1.75,1.75,0,0,0,.16-.42,2.08,2.08,0,0,1,.17-.42.19.19,0,0,0,0-.21.16.16,0,0,1,0-.15Zm-.22-.44a2.63,2.63,0,0,0-.1.36c-.06.26-.2.72-.3,1s-.18.57-.15.65a1,1,0,0,1,0,.37,1.36,1.36,0,0,0,0,.53l.05.26,1,.34c2,.7,1.91.68,2.16.51a.8.8,0,0,1,.24-.13s0,.1,0,.21l0,.21.34.11a.67.67,0,0,0,.4.06s.06,0,.09,0a3,3,0,0,0,1.48.46c.17,0,.21,0,.25.07a12.18,12.18,0,0,0,2.58,1c2.34.78,2.55.84,2.81.8l.29,0,.22-.66a3.88,3.88,0,0,0,.29-1.25c0-.17,0-.2.11-.26s.13-.15.35-.83l.24-.76a1.67,1.67,0,0,1,.08-.28,1.81,1.81,0,0,0,.06-.49c0-.23.09-.5.2-.46s.27-.39.55-1.27a15.81,15.81,0,0,0,.73-2.7c0-.37.05-.45.23-.56s.16-.14.23-.37a1.28,1.28,0,0,1,.14-.35,4.14,4.14,0,0,0,.31-1,2.48,2.48,0,0,1,.13-.55,2.65,2.65,0,0,0,.12-.73.54.54,0,0,1,.1-.42c.06-.08.14-.14.18-.13s.27-.41,1.1-2.78c.35-1,.65-1.83.66-1.83s.1-.31.2-.67c.16-.58.19-.84.1-.87a2.08,2.08,0,0,1-.2-.52,1.32,1.32,0,0,0-.89-.37.57.57,0,0,1-.31-.09.46.46,0,0,0-.3-.06.48.48,0,0,1-.25,0s-.05,0-.08,0-.06,0-.07-.06-.47-.43-.89-.53l-.86-.22A23.09,23.09,0,0,1,145,89.27s-.08,0-.1,0-.6-.15-1.27-.36-1.38-.39-1.56-.42a2.39,2.39,0,0,1-.37-.06h-.05s-.06,0-.11,0a1.25,1.25,0,0,0-.4.14l-.31.16-.22.54c-.31.78-1.21,3.46-1.31,3.9a2.63,2.63,0,0,1-.11.41c0,.06-1.57,4.39-2.77,7.9-.58,1.69-1.08,3.12-1.12,3.17a1,1,0,0,0-.08.21Z"/></g></g></svg>