<svg xmlns="http://www.w3.org/2000/svg" viewBox="0 0 87.3 86.84"><defs><style>.cls-1{fill:#fff;}</style></defs><g id="レイヤー_2" data-name="レイヤー 2"><g id="レイヤー_4" data-name="レイヤー 4"><path class="cls-1" d="M31.89,74.35a92.14,92.14,0,0,0,18,10.37c3.17,1.37,5.29,2.06,6.49,2.11h.16c4.44,0,10.18-8.33,10.87-11a8.43,8.43,0,0,0-3-8.68l-6-4.65a8.41,8.41,0,0,0-10.83.43,28,28,0,0,0-2.86,2.92.45.45,0,0,1-.23,0c-2.5,0-11.24-7.6-13.57-10s-10.15-11.2-10-13.6c0-.17.06-.21.08-.23a26.91,26.91,0,0,0,2.87-2.81,8.37,8.37,0,0,0,.43-10.83l-4.65-6A8.63,8.63,0,0,0,18.31,21c-.23-.18-.46-.35-.8-.57A8.41,8.41,0,0,0,14,19.24a8.72,8.72,0,0,0-1-.06,8.21,8.21,0,0,0-2,.24c-2.38.6-11.23,6.35-11,11,.06,1.2.75,3.32,2.12,6.49A91.45,91.45,0,0,0,12.51,55,91,91,0,0,0,31.89,74.35Z"/><path class="cls-1" d="M74.18,13.1A46.31,46.31,0,0,0,48.73.05,5,5,0,0,0,47,.11h0a4.29,4.29,0,0,0-.86.27l-.06,0a5.19,5.19,0,0,0-.77.42l0,0a5.36,5.36,0,0,0-.69.57h0a4.85,4.85,0,0,0-1.44,3.42h0a4.82,4.82,0,0,0,4,4.78A36.9,36.9,0,0,1,77.65,40.18a4.87,4.87,0,0,0,9.59-1.65A46.43,46.43,0,0,0,74.18,13.1Z"/><path class="cls-1" d="M46.56,29.46a17.23,17.23,0,0,1,7,4.26,17.54,17.54,0,0,1,4.29,7,4.88,4.88,0,0,0,4.63,3.43h0A4.84,4.84,0,0,0,67.16,38,27.21,27.21,0,0,0,49.3,20.12a4.83,4.83,0,0,0-6.19,4.67v0A4.9,4.9,0,0,0,46.56,29.46Z"/></g></g></svg>