<svg xmlns="http://www.w3.org/2000/svg" xmlns:xlink="http://www.w3.org/1999/xlink" viewBox="0 0 207.56 169.83"><defs><style>.cls-1{fill:#d0b03c;}.cls-2{fill:#edd3b3;}.cls-3{fill:#bdaa92;}.cls-4{fill:#5c4e42;}.cls-5{fill:#a3b452;}.cls-6{fill:#748f3e;}.cls-7{fill:#526d3e;}.cls-8{fill:#fff;}.cls-9{fill:#d5969f;}.cls-10{fill:#c6696c;}.cls-11{fill:#c1b89a;}.cls-12{fill:#ead048;}.cls-13{fill:#f5e94d;}.cls-14{fill:#b99b66;}.cls-15{fill:#40351a;}.cls-16{fill:url(#名称未設定グラデーション_2);}.cls-17{fill:#9d1f27;}</style><linearGradient id="名称未設定グラデーション_2" x1="83.28" y1="124.35" x2="83.28" y2="72.64" gradientTransform="translate(0 1)" gradientUnits="userSpaceOnUse"><stop offset="0" stop-color="#77161b"/><stop offset="1" stop-color="#9d1f27"/></linearGradient></defs><g id="レイヤー_2" data-name="レイヤー 2"><g id="レイヤー_5" data-name="レイヤー 5"><path class="cls-1" d="M166.87,42.81s5.11-1.92,7.4,1.16-.86,7.8-.86,7.8,5.44-2.29,7.09,2.37-2.8,7.23-2.8,7.23,5.09-.72,6.31,3.22a5.22,5.22,0,0,1-4,6.52s4.58-.07,4.94,3.79-4,4.94-4,4.94,4.29,1.43,3.65,5.73-5.3,4.3-5.3,4.3S184.51,67.42,166.87,42.81Z"/><path class="cls-1" d="M142.92,13.43,144,9.28A30.5,30.5,0,0,0,148.33,8c2.42-.91,1.29-2.58.27-2.47s-4,.64-4,.64,1.4-5.8.27-6.12-1.77,1.29-2.47,3.38-2.54,8.25-2.54,8.25Z"/><path class="cls-1" d="M157.55,21.59l6.66-7a32,32,0,0,0,4.65,1.29c2.7.54,2.62-1.6,1.64-2.07s-4-1.69-4-1.69,4.53-4.45,3.69-5.37-2.32.16-4.13,1.66-9,7.84-9,7.84Z"/><path class="cls-2" d="M142.33,46.76a22.14,22.14,0,0,1,5.59,13.53c.36,8.24-2.57,13-3.58,14-1.17,1.19-2.37,2-5.27,2.9l23.53,9.13s5.29-8.24,3.15-21.12-11.6-22.06-16.62-23.92l-7.16,5Z"/><path class="cls-3" d="M147.85,52.27a.59.59,0,0,1-.47-.24.56.56,0,0,1,.14-.79c.08-.06,2-1.38,6.34-2a.56.56,0,0,1,.63.49.55.55,0,0,1-.48.63,14.29,14.29,0,0,0-5.84,1.77A.55.55,0,0,1,147.85,52.27Z"/><path class="cls-3" d="M149.64,59.36a.57.57,0,0,1-.51-.32.56.56,0,0,1,.25-.76c.13-.06,3.13-1.51,9.57-1.42a.57.57,0,0,1,0,1.14h0c-6.12-.1-9,1.29-9.05,1.3A.57.57,0,0,1,149.64,59.36Z"/><path class="cls-3" d="M150.07,67a.58.58,0,0,1-.56-.44.56.56,0,0,1,.43-.68,46.91,46.91,0,0,1,11.18-.59.57.57,0,0,1,.54.59.54.54,0,0,1-.59.54,48.22,48.22,0,0,0-10.88.56Z"/><path class="cls-4" d="M114.91,33.16s-5.44-3.51-2.15-8.52,7.81-6.73,8.59-10.82c0,0,.19,2.39-3.51,6.09s-7.26,8.45-2,12.75C115.88,32.66,115.77,33.3,114.91,33.16Z"/><path class="cls-5" d="M180.5,89.65l-19-3c3.15-4.58,4-13.24,4-13.24s.93-6.87-3-16.4-13.31-15-13.31-15-5.16,4.15-8.74,5.65-11.53,3.87-18.18.15S117.05,40,117.05,40l0-.06c-2-.93-3.28-2.23-3.66-3.73-.86-3.4,2-4.16,2-4.16s.14-5.36,3.87-6.08a3.19,3.19,0,0,1,4.08,2.79,4.13,4.13,0,0,1,4.08-2.44,3.65,3.65,0,0,1,.76.14l3.46-1.92s-.93-5.88,1.87-10.39,9.09-5.08,10.52.14a8.25,8.25,0,0,1,7.88-3.86c5.3.64,6.15,8.09,5.94,10.38,0,0,7.37-6,13.39.22,0,0-.36,5.22-8.45,9.45,0,0,6.09-1.5,7.23.93s-2.65,4.73-2.65,4.73,3.15-.65,3.73,2-3.66,4.37-3.66,4.37,9,11,11.89,24.56S180.5,89.65,180.5,89.65Z"/><path class="cls-6" d="M115.43,32.18h0a.42.42,0,0,1-.38-.46c.11-1.27.73-5.48,4.19-6.14a3.87,3.87,0,0,1,3.13.54,3.58,3.58,0,0,1,1.18,1.6,4.43,4.43,0,0,1,4-1.79c3.28.24,4.28,4.45,4.32,4.63a.43.43,0,0,1-.32.51.44.44,0,0,1-.51-.32s-.9-3.78-3.55-4A3.68,3.68,0,0,0,123.75,29a.42.42,0,0,1-.45.26.43.43,0,0,1-.36-.38,3.33,3.33,0,0,0-1.12-2,3.09,3.09,0,0,0-2.46-.39c-2.87.56-3.41,4.26-3.51,5.38A.42.42,0,0,1,115.43,32.18Z"/><path class="cls-7" d="M162,28.07s-1.64-1.79-.93-2.93,4-3.8,8.74-3.22C169.83,21.92,166.68,26.78,162,28.07Z"/><ellipse class="cls-8" cx="149.03" cy="20.09" rx="4.98" ry="2.83" transform="translate(98.42 161.69) rotate(-78.01)"/><path class="cls-4" d="M148.25,16.88a1.78,1.78,0,0,0-1,.09,7.92,7.92,0,0,0-1,2.53c-.57,2.69.21,5.13,1.73,5.46a1.78,1.78,0,0,0,1-.09,8,8,0,0,0,1-2.53C150.55,19.65,149.77,17.2,148.25,16.88Z"/><ellipse class="cls-8" cx="137.64" cy="20.09" rx="4.98" ry="2.83" transform="translate(89.4 150.56) rotate(-78.01)"/><path class="cls-4" d="M136.86,16.88a1.78,1.78,0,0,0-1,.09,7.91,7.91,0,0,0-1,2.53c-.57,2.69.2,5.13,1.73,5.46a1.78,1.78,0,0,0,1-.09,8,8,0,0,0,1-2.53C139.16,19.65,138.39,17.2,136.86,16.88Z"/><ellipse class="cls-4" cx="126.8" cy="30.94" rx="1" ry="1.5" transform="translate(-2.86 15.97) rotate(-7.13)"/><ellipse class="cls-4" cx="119.71" cy="30.51" rx="1.5" ry="1" transform="translate(57.46 137.21) rotate(-74.04)"/><path class="cls-4" d="M132.24,34.52s8.88-4.23,17.25-2.87,22.63,5.3,28.72-2.36c0,0-4.43,7.83-19.27,5.23-12.24-2.15-16.25-2.65-25.49,1.29C133.45,35.81,132,36.24,132.24,34.52Z"/><path class="cls-8" d="M120.28,41.11s3.51,5.37,13,3.86a11.87,11.87,0,0,0,10.31-10.24S132.31,43.54,120.28,41.11Z"/><path class="cls-9" d="M143,37.22A11.67,11.67,0,0,1,133.31,45a21.24,21.24,0,0,1-2.13.23,9,9,0,0,0,3.55-5.66s0,0,0-.08c.59-4.19,1.24-8.38,4.14-8.92,2-.37,3.49,2.08,4,4.75A10.46,10.46,0,0,1,143,37.22Z"/><path class="cls-10" d="M139.78,34.62a.42.42,0,0,0-.48-.36.43.43,0,0,0-.36.48s.73,5.45-1.71,9a12.76,12.76,0,0,0,1.46-.86A16.5,16.5,0,0,0,139.78,34.62Z"/><path class="cls-5" d="M111.05,50.15a11,11,0,0,1-1.74,6c-1.74,2.44-5.53,4-10.66,2.57s-3.57-8.07-3.57-8.07c-2.22-2.47-2.75-8.25-.45-9.73,3-1.93,8.13,5.51,8.13,5.51Z"/><path class="cls-8" d="M187.81,119.15l-.05,0a18.41,18.41,0,0,0,4.49-9.2c3.72-17.33-13.32-20.34-13.32-20.34C169.05,62.8,144,75,144,75s-4.58-13-23.06-18-32.65,7.3-32.65,7.3-16-3.15-26.56,8.74S57.57,99,57.57,99c-11.6-.14-21.91,8.74-22.2,23.2s9.38,20.19,9.38,20.19-1.11,15.17,15.61,21.2c15.89,5.73,31.43-5.16,31.43-5.16s12.39,15.76,34.87,8.74c6-1.87,10-5.15,12.56-9,1.39.95,11.77,7.39,27.54-1.19,16-8.7,11.17-25.35,22.13-28.57s17.82-2.79,17.82-2.79S191,123,187.81,119.15Z"/><path class="cls-11" d="M151,162.24c-7.66,0-12.16-3.31-12.44-3.53a.85.85,0,1,1,1-1.36c.43.33,10.56,7.7,26.79-1.14,8.25-4.49,10.77-11.14,13-17,1.94-5.15,3.78-10,9.31-11.64a74.2,74.2,0,0,1,11.46-2.45c-4.86-1.15-10.94-3-13-5.42a.85.85,0,0,1,.11-1.2.84.84,0,0,1,1.19.11c2.48,3,14.12,5.44,18.39,6.15a.85.85,0,0,1-.19,1.69c-.06,0-6.88-.38-17.53,2.76-4.71,1.38-6.25,5.45-8.2,10.6-2.21,5.84-5,13.11-13.76,17.9A33.81,33.81,0,0,1,151,162.24Z"/><path class="cls-11" d="M115.48,169.83a32.92,32.92,0,0,1-23.84-10.25c-3.14,2-17.08,10.06-31.57,4.84-15.36-5.54-16.18-18.76-16.18-21.54-1.94-1.34-9.63-7.46-9.37-20.67.3-15.37,11-23.55,21.82-24C55.06,94.46,52,82.55,61.08,72.4c9.85-11,24.36-9.46,27-9.07,2.23-1.77,15.94-11.88,33.12-7.22,16.17,4.39,21.91,14.68,23.28,17.73,2.8-1.16,12.12-4.46,21.11-.84,6.25,2.52,11,7.85,14,15.84,1.78.41,7.92,2.17,11.5,7.48,2.51,3.73,3.19,8.36,2,13.77-1.83,8.52-6.45,11.79-10,13-5.86,2.06-12.24.05-14.7-2s-4.25-6.66-3.91-10.61a8.68,8.68,0,0,1,4.32-7.12,8.11,8.11,0,0,1,9.1.51c2.29,1.76,3.45,4.47,2.88,6.74a.85.85,0,1,1-1.65-.41c.4-1.6-.53-3.65-2.27-5a6.36,6.36,0,0,0-7.23-.37,7,7,0,0,0-3.45,5.78c-.3,3.38,1.14,7.4,3.29,9.14,1.87,1.53,7.62,3.59,13.06,1.68,4.57-1.61,7.57-5.58,8.91-11.79,1.06-4.95.47-9.14-1.77-12.47-3.72-5.54-10.79-6.84-10.87-6.85a.86.86,0,0,1-.65-.55c-2.86-7.76-7.31-12.91-13.21-15.29-9.8-4-20.45,1.11-20.56,1.16a.87.87,0,0,1-.69,0,.84.84,0,0,1-.48-.5c-.05-.13-4.7-12.68-22.48-17.51s-31.73,7-31.87,7.12a.83.83,0,0,1-.72.2c-.16,0-15.63-2.91-25.77,8.46s-4.07,25-4,25.15a.84.84,0,0,1-.78,1.2H57.3c-10.3,0-20.79,7.64-21.08,22.37-.27,13.76,8.59,19.22,9,19.44a.86.86,0,0,1,.42.79c0,.6-.84,14.61,15,20.34,15.3,5.51,30.5-4.95,30.65-5a.85.85,0,0,1,1.16.17c.49.62,12.32,15.2,34,8.45,9.22-2.88,12.86-8.86,14.29-13.37a22.39,22.39,0,0,0-3.18-19.6,20.92,20.92,0,0,0-15.69-7.86,15.41,15.41,0,0,0-12.42,5.1,14.24,14.24,0,0,0-1.74,15.48A8,8,0,0,0,116,150.6c3.45-.43,5.78-1.57,6.92-3.39a6,6,0,0,0,.54-4.66.85.85,0,0,1,.53-1.07A.84.84,0,0,1,125,142a7.62,7.62,0,0,1-.71,6.1c-1.42,2.28-4.17,3.68-8.15,4.18a9.6,9.6,0,0,1-10-5.35,16,16,0,0,1,2-17.39,17,17,0,0,1,13.75-5.69,22.62,22.62,0,0,1,17,8.52c4.3,5.61,5.69,14.11,3.45,21.15-1.55,4.9-5.48,11.38-15.4,14.48A38.37,38.37,0,0,1,115.48,169.83Z"/><circle class="cls-12" cx="175.13" cy="90.09" r="10.1"/><circle class="cls-13" cx="173.09" cy="90.09" r="6.01"/><circle class="cls-8" cx="169.87" cy="90.03" r="1.83"/><circle class="cls-8" cx="168.63" cy="86.23" r="1.05"/><path class="cls-5" d="M171.83,69.46A17.37,17.37,0,0,1,186,68c8.23,2.58,9.74,9.23,9,13.53a18.07,18.07,0,0,1-4.15,7.88c.21,7.44-6.72,10.07-9.35,10.7-2.47.59-3.77-1.31-1.61-2.36,3.55-1.72,3.55-3.06,3.55-3.06a8.9,8.9,0,0,1-5.64,1.82c-3.12.06-3.94-2.38-1-2.73,5.69-.7,5.26-3.12,5.26-3.12a8.19,8.19,0,0,1-4.08,1.4c-2.86.35-5.8.07-5.66-1.58s2.67-1.57,4.16-1.86c1.75-.34,3.75-1,3.43-3.6-.3-2.45-2.2-2.47-4.19-2.84-1.12-.22-5,.93-5-1.29s3.72-3.58,7.95-3.37Z"/><path class="cls-6" d="M186.37,82.7a.43.43,0,0,1-.34-.16c0-.05-3.44-4.36-7.42-4.56a14.19,14.19,0,0,0-4.69.49.42.42,0,0,1-.53-.28.43.43,0,0,1,.28-.53,15.19,15.19,0,0,1,5-.53c4.37.22,7.9,4.7,8,4.89a.42.42,0,0,1-.07.59A.43.43,0,0,1,186.37,82.7Z"/><path class="cls-5" d="M96.76,56.27a2.22,2.22,0,0,1,1.15,2.25c-.16,1-1.13,1.18-2.31,1.08a3.21,3.21,0,0,1-2.85-2.37c-.19-.86-.06-2.09,1.06-2.12A5.74,5.74,0,0,1,96.76,56.27Z"/><path class="cls-6" d="M96.11,60.05l-.55,0a4.15,4.15,0,0,1-.58-.1.43.43,0,0,1-.31-.52.42.42,0,0,1,.52-.3,3.5,3.5,0,0,0,.45.07c1.7.16,1.81-.48,1.85-.72a1.8,1.8,0,0,0-1-1.84.41.41,0,0,1-.1-.59.42.42,0,0,1,.59-.1,2.62,2.62,0,0,1,1.32,2.67C98.21,59.28,97.73,60.05,96.11,60.05Z"/><path class="cls-14" d="M98.68,61.37h0a.71.71,0,0,1-.71-.72l.51-36.41a1.12,1.12,0,0,1,1.23-1.1h0a1.12,1.12,0,0,1,1,1.15l-1.34,36.4A.7.7,0,0,1,98.68,61.37Z"/><path class="cls-5" d="M97,51.66c2.91,2.88,2,4.65-.32,4.68S91.72,53.28,92,51.21a2,2,0,0,1,2.13-1.88C94.94,49.53,97,51.66,97,51.66Z"/><path class="cls-6" d="M96.6,56.76a4.44,4.44,0,0,1-2.65-1,.43.43,0,0,1-.07-.6.42.42,0,0,1,.59-.08,3.6,3.6,0,0,0,2.15.86c.87,0,1.48-.28,1.67-.75.28-.71-.33-1.9-1.64-3.2a.42.42,0,0,1,0-.6.43.43,0,0,1,.6,0c2.06,2,2.13,3.37,1.82,4.12a2.44,2.44,0,0,1-2.44,1.28Z"/><path class="cls-5" d="M97.53,43.75s4.08,7.74,0,8.06S91.63,42.9,94.63,41"/><path class="cls-6" d="M97.32,52.24c-1.35,0-2.57-.9-3.45-2.57a.43.43,0,0,1,.18-.58.42.42,0,0,1,.57.18c.44.84,1.42,2.24,2.88,2.12a1.39,1.39,0,0,0,1.19-.66c.85-1.56-.82-5.42-1.53-6.78a.42.42,0,1,1,.75-.39c.28.54,2.75,5.34,1.52,7.58a2.16,2.16,0,0,1-1.86,1.09Z"/><path class="cls-14" d="M100.19,61.58h0a.7.7,0,0,1-.57-.83L106.68,25a1.12,1.12,0,0,1,1.4-.86h0a1.12,1.12,0,0,1,.79,1.32L101,61A.7.7,0,0,1,100.19,61.58Z"/><path class="cls-5" d="M111,51.13c.21-2.53-.54-5-3.34-5.33-3.63-.48-6.28.78-6.39,2.93s4.51,1.93,5.59,1.28Z"/><path class="cls-6" d="M104.43,50.88a5.43,5.43,0,0,1-2.65-.57,1.71,1.71,0,0,1-.91-1.61,3.07,3.07,0,0,1,1.4-2.4.43.43,0,0,1,.59.11.42.42,0,0,1-.11.59,2.24,2.24,0,0,0-1,1.75.87.87,0,0,0,.5.83,6.18,6.18,0,0,0,4.44.07.42.42,0,0,1,.58.15.42.42,0,0,1-.14.58A6.18,6.18,0,0,1,104.43,50.88Z"/><path class="cls-1" d="M147.93,144.62c-12.56.11-23.85,4.69-35.81,9.53-10.66,4.32-21.68,8.78-34.05,10.08a112.56,112.56,0,0,1-11.6.62c-31.56,0-46.61-14.08-51.62-20.14-6-7.26-8.46-16.87-6.91-27.08,1.4-9.2,6-17.53,11.66-21.25a39.37,39.37,0,0,1,6.07-3.17,3,3,0,0,0-1-1,2.87,2.87,0,0,0-1.45-.4,2.9,2.9,0,0,0-2.88,2.6l-.06,0A3.61,3.61,0,0,0,18.6,94,3.64,3.64,0,0,0,15,97.69a3.85,3.85,0,0,0,.06.69,4.41,4.41,0,0,0-.83-.08,4.05,4.05,0,0,0-3.35,6.36l0,0a4.48,4.48,0,0,0-1-.12,4.84,4.84,0,0,0-2.39,9.05l-.26,0a4.84,4.84,0,0,0-.94,9.58v.09a4.83,4.83,0,0,0,1,9.56h.12a4.83,4.83,0,0,0,3.64,9,4.84,4.84,0,0,0,3.5,8.18,4.86,4.86,0,0,0,2.45-.67,4.83,4.83,0,0,0,7.52,5.86,4.77,4.77,0,0,0-.29,1.65,4.84,4.84,0,0,0,8.79,2.79h0a4.56,4.56,0,0,0-.06.75,4.83,4.83,0,0,0,8.92,2.58,4.83,4.83,0,0,0,9.16,2h0a4.83,4.83,0,0,0,9.38,1h.18a4.81,4.81,0,0,0,9.08.13h.21a4.83,4.83,0,0,0,9.26-.68l.35,0a4.82,4.82,0,0,0,9-1.64l.13,0a4.83,4.83,0,0,0,8.84-2.56l.11,0a4.83,4.83,0,0,0,8.73-2.86c0-.11,0-.23,0-.34h0a4.41,4.41,0,0,0,7.95-2.61,5.09,5.09,0,0,0,0-.56l.11-.05a4.4,4.4,0,0,0,7.74-2.83,4.41,4.41,0,0,0,7.81-2.74,3.92,3.92,0,0,0,6.95-1.72,3.41,3.41,0,0,0,6.1-1.16l.31,0a3.41,3.41,0,0,0,3,1.88,3.46,3.46,0,0,0,3.17-2.1,3.11,3.11,0,0,0,5.38.84,2.67,2.67,0,0,0,4.75.85,2.41,2.41,0,0,0,2.36,1.95,2.43,2.43,0,0,0,2.34-1.83,47.16,47.16,0,0,0-16-3.18Z"/><path class="cls-1" d="M170.07,149s2-1,5.9.15,5.24,4.51,6.72,8.09c1.32,3.2,3.1,4,4.52,4.32,0,0-9.2,1.94-14.39-2.13s-4.32-8.09-4.32-8.09a8.44,8.44,0,0,1,.23-1.73Z"/><path class="cls-5" d="M56.54,89.38C45.6,86,29.19,88.54,18.88,95.27c-11.59,7.57-19.15,33.24-5,50.29,10.5,12.69,32.19,23.35,64.38,20C104.44,162.8,124.34,146.15,148,146c15.07-.13,30.18,10.37,30.18,10.37-23.61-28.21-69.17-19.63-90.87-16.23a65.73,65.73,0,0,1-38.93-6.32c-12.41-5.89-8.83-18.3,2.11-20.19Z"/><path class="cls-8" d="M97.32,94.78a14.3,14.3,0,0,0-5.43-9.52,14.91,14.91,0,0,0,1.52-4c1.81-7.93-3.77-15.54-7.38-17.57-9.84-5.53-19.13-3.26-25.49.52-11,6.57-11.76,20-11.76,20S26.43,84.48,31,109.66c0,0-9.76,9.88-4.87,23.72s20.44,11.21,25.6,8.65a17.53,17.53,0,0,0,8.44-9.76,23.3,23.3,0,0,0,21.35-2.62c10.07-6.94,7.5-19,7.5-19C94.06,109.11,98.52,102.62,97.32,94.78Z"/><path class="cls-11" d="M43,144.91a20.58,20.58,0,0,1-8.61-1.36,15.78,15.78,0,0,1-9.11-9.89c-4.51-12.75,3.11-22.38,4.76-24.26-1.37-8.08-.15-14.49,3.63-19.05,4.73-5.72,12-6.74,14.33-6.92.33-3,2.21-14,12.11-19.91,5-3,15-6.93,26.34-.53,3.82,2.15,9.7,10.17,7.79,18.5a14.9,14.9,0,0,1-7.66,10.1,14.33,14.33,0,0,1-12.33.11c-4.38-1.88-6.73-5.63-6.31-10a9.19,9.19,0,0,1,6.82-8.26,6.85,6.85,0,0,1,5.71.9,7.76,7.76,0,0,1,2.75,5.13.85.85,0,0,1-.77.92.87.87,0,0,1-.93-.77,6.06,6.06,0,0,0-2.07-3.91,5.23,5.23,0,0,0-4.33-.61,7.5,7.5,0,0,0-5.49,6.77c-.35,3.62,1.63,6.72,5.29,8.3a12.44,12.44,0,0,0,10.89-.06,13.21,13.21,0,0,0,6.77-9c1.72-7.51-3.54-14.71-7-16.64-10.65-6-20-2.25-24.64.51C50.45,71.24,49.64,84.16,49.63,84.29a.83.83,0,0,1-.84.81c-.08,0-8.73.18-13.82,6.34-3.5,4.24-4.58,10.32-3.19,18.07a.84.84,0,0,1-.23.75c-.09.09-9.31,9.68-4.66,22.83A14.13,14.13,0,0,0,35,142c5.95,2.41,13.14.84,16.27-.71A16.46,16.46,0,0,0,59.61,131a11.29,11.29,0,0,0-2.21-9.76c-2.86-3.77-7-5.38-11.07-4.29a8.29,8.29,0,0,0-6.35,6.7A6.15,6.15,0,0,0,41.63,129a7.46,7.46,0,0,0,6.2,1.9.85.85,0,0,1,.23,1.69,9.23,9.23,0,0,1-7.63-2.38,7.76,7.76,0,0,1-2.14-6.8,10,10,0,0,1,7.6-8.13c4.77-1.26,9.57.57,12.87,4.91a13.06,13.06,0,0,1,2.5,11.18,18.21,18.21,0,0,1-9.2,11.44A23.66,23.66,0,0,1,43,144.91Z"/><path class="cls-15" d="M31.41,36.7c-1.22-2-2.61-1.39-5-1.38l-7,0c0-1.22,0-2.12,0-2.47-.09-1.48,0-3-1.26-4.43s-3.38-1.35-4.44-1.05c-2.39.67-.71,6.09-.62,7.33,0,.17,0,.39,0,.65h-.75c-3.12,0-8.49.2-10.57.38S-.3,38,.49,40.47,3.4,50.41,3.4,50.41c1.14,2.3,3.91,1.46,8.59,1,.45,0,.91-.08,1.37-.11,0,1.83,0,3.55,0,4.79,0,2.05-.55,4.52.36,5.42s4.44.64,4.59-1.5.55-6.75.54-8.47v-.45c2.27,0,4.37.05,6.09.17,3.38.23,4.85-1,5.44-4S32.63,38.66,31.41,36.7ZM12.66,47.16c-1.73.25-3.46.51-4.25-.89s-3.15-5.66-1.33-6.4c1-.44,3.55-.52,6.22-.53,0,.92.08,1.84.11,2.63,0,1,0,2.93,0,5.14Zm11.43-.8c-.73.07-2.89.22-5.13.38.08-2.28.18-5,.27-7.44,3.65-.1,6.14-.25,6.82.47S25.83,46.18,24.09,46.36Z"/><path class="cls-15" d="M47.15,34.9a13.52,13.52,0,0,0,.79,1.23c1.44,1.94,2.4.92,3,.28a2.91,2.91,0,0,0,0-1.67c1.39,0,3.15,0,5,.09-.06.52-.11.9-.11,1a1.69,1.69,0,0,0,2.32,1.3,3.24,3.24,0,0,0,1.59-2.24c3.93.09,7.51.16,8.18.08,1.28-.17,1.12-2.59-.88-3.76-1.26-.74-3.54-.48-6.21-.17.38-1.52.63-3.08,0-3.44-1-.65-4-.56-4.09.65,0,.5-.2,1.8-.39,3.19l-.57,0c-1.54,0-3.6,0-5.74-.13a20.26,20.26,0,0,0-.9-2.62c-.48-.93-2.33-1.06-3.92-1.2-1-.1-.72,1.6.06,3.56-2.52-.15-4.62-.28-5.43-.28-1.92,0-1.73,2.36-.56,3.59C40.75,35.93,43.63,35.24,47.15,34.9Z"/><path class="cls-15" d="M69,43.75c-.9,0-2.86.07-5.49.1.08-.69.15-1.33.18-1.85,1.49.09,2.42,0,2.51-.42.32-1.58-.24-3.75-2-3.75s-8.65,0-11,.08-11.52.08-12.65-.08-1,.75-1,.75a3,3,0,0,0,2.25,3,3.76,3.76,0,0,0,.94.16c0,.54.07,1.19.13,1.9l-6.29,0c-2.09,0-2.54.57-2.38,1,1.26,3.18,4.08,2.68,9,2.18a16.71,16.71,0,0,0,.53,2.4L43,49.1c-2.81-.34-3.13.08-3.29.92,0,0,.48,2.42,1.29,2.67s4.08-.25,8.08-.5c.52,0,1.16,0,1.88,0,0,.66,0,1.37-.07,2.08l-3.53,0c-2.88,0-9.09-.36-9.17.59a3,3,0,0,0,2.16,3.34c1.81.14,6.48-.47,10.43-.54,0,.11,0,.2,0,.29-.08,1.25-.64,3.08,1.2,3.75s3,.67,3.2-1.08c0-.36.08-1.44.09-2.91,4.73.1,11.05.3,12.4.24,1.76-.09.88-3-.32-3.26a20.47,20.47,0,0,0-5-.29c-1.07,0-4,0-7.12,0,0-.65,0-1.31,0-2,4.49.23,9.5.6,10.49.39,1.52-.34.4-2.76-.4-3.26a6.09,6.09,0,0,0-2.7-.13c.15-.65.31-1.49.46-2.4,3.47.17,6.36.3,7.45.19C73.18,46.84,70.42,43.75,69,43.75Zm-9.41-2.14c0,.53-.08,1.33-.16,2.24H58.25l-3.13-.05c0-1,0-1.92,0-2.56.67,0,1.31,0,1.9.1Zm-12.73,0c1.26-.08,2.62-.19,4-.27,0,.65,0,1.48.06,2.4l-4.08-.05C46.81,43,46.82,42.23,46.85,41.61Zm.51,7.72c-.13-.7-.26-1.73-.36-2.86l1,0c.88,0,1.89,0,3,0,0,1.1,0,2.16,0,3C49.75,49.4,48.5,49.37,47.36,49.33Zm11.32.18-3.49,0c0-1,0-2,0-2.95l4,.18A22.34,22.34,0,0,1,58.68,49.51Z"/><path class="cls-15" d="M159.69,90.52a16.83,16.83,0,0,0-2.76-2.46,9.24,9.24,0,0,0,.8-2.37,6.52,6.52,0,0,0,.11-1,8.64,8.64,0,0,0-6.33-8.51c-.31-.09-1.19-.46-1.78-.71a24.56,24.56,0,0,0-4.59-1.59c-4.8-.91-9,1.59-10.73,6.35a6.89,6.89,0,0,0-.43,2.07,11,11,0,0,0,.83,4.89c-1.05.49-2,1-3,1.56a9.28,9.28,0,0,0-4.1,4.82h-.28a8.34,8.34,0,0,0-6,3,9.07,9.07,0,0,0-1,1.47,52.75,52.75,0,0,0,.35-6.12,83.81,83.81,0,0,0-.59-9.59,10.62,10.62,0,0,0-11.07-9.54,10.25,10.25,0,0,0-7.26,3.74,11,11,0,0,0-2.27,4.6A10.49,10.49,0,0,0,98.27,79a9.89,9.89,0,0,0-6.94-3.58A9.76,9.76,0,0,0,84,78h0a9.66,9.66,0,0,0-5.85-7.31,49.28,49.28,0,0,0-8.63-2.87c-5.24-1-9.83,1.78-11.71,7.06a7.47,7.47,0,0,0-.41,2,11.92,11.92,0,0,0,1.1,5.91l-.85.3a10.07,10.07,0,0,0-6,7.74,8.46,8.46,0,0,0-1.51.1,9,9,0,0,0-6.07,4,9.05,9.05,0,0,0-1.39,3.71l-.38-.13a6,6,0,0,0-6.78,2.73c-2.38,4-5.24,6.54-7.67,6.77a4.26,4.26,0,0,1-.78,0c-.71-1-2-4.15-2-10.16,0-3,.2-6.8.59-11.28A14.93,14.93,0,0,0,22,75.13a11.44,11.44,0,0,0-8.47-3.74h-.08A9.5,9.5,0,0,0,4.68,77a19.87,19.87,0,0,0-1.57,7.18C2.8,88,2.64,91.64,2.64,95.07,2.64,108.18,4.46,126,20.18,129a30,30,0,0,0,5.66.55,19.37,19.37,0,0,0,12.89-5c.18.23.36.46.55.68A11.32,11.32,0,0,0,47.89,129l.76,0a12.28,12.28,0,0,0,7.1-2.64,8,8,0,0,0,1.13.48,6,6,0,0,0,.88,1.92,6,6,0,0,0,5,2.59,5.87,5.87,0,0,0,2.51-.55c6.72-3.08,15.92-7.3,20.46-15a28,28,0,0,0,2.84-6.64q.3.09.6.15a8.94,8.94,0,0,0,7.14-1.51,59,59,0,0,1-8,11.88,6,6,0,0,0,6.36,9.64,37.33,37.33,0,0,0,16-9.44,8.19,8.19,0,0,0,1.73,2.28,8,8,0,0,0,4,2,6,6,0,0,0,5.93,7.08,6.2,6.2,0,0,0,2.37-.48,19.51,19.51,0,0,0,6.86-4.8,17,17,0,0,0,4.42-1.08,6.31,6.31,0,0,0,.9,1.48,6.05,6.05,0,0,0,4.64,2.18,6,6,0,0,0,2.74-.67c3.25-1.66,11.27-6.23,15.66-12.77a22.63,22.63,0,0,0,4-13.34h0A16.24,16.24,0,0,0,159.69,90.52Zm-18,14.31,1-.62a10.79,10.79,0,0,1,1.89-1l.3,0,.15,0,.14,0a17.8,17.8,0,0,1-1.77,5.54A13.49,13.49,0,0,0,141.72,104.83Zm-76.09,6.64-.44-.38a1.73,1.73,0,0,0,.21-.17,8.85,8.85,0,0,0,2.5-10.21l.28,0a10.6,10.6,0,0,1,1.63,0,1.33,1.33,0,0,1,.61.19,1,1,0,0,1,0,.14,19.63,19.63,0,0,1-4,11.26A8.63,8.63,0,0,0,65.63,111.47Z"/><path class="cls-8" d="M95.7,104c2.4-3.11,4.5-5.68,6.25-7.65a2.85,2.85,0,0,0-3-4.6l-1.82.6c.06-1.61.2-3.5.43-5.65A7.58,7.58,0,0,0,95.84,81a6.76,6.76,0,0,0-4.73-2.45,6.64,6.64,0,0,0-4.94,1.74,7.57,7.57,0,0,0-2.43,5.39c0,1.74,0,3.41,0,5a18.07,18.07,0,0,0-1.28-1.67,12.68,12.68,0,0,0-5.71-3.75,5.34,5.34,0,0,0,4-4.24,6.45,6.45,0,0,0-3.9-7.48A46.83,46.83,0,0,0,69,70.93c-3.74-.7-6.78,1.17-8.14,5a3.92,3.92,0,0,0-.23,1.15c-.24,4.61,2.12,6.59,4.15,7.45a30.62,30.62,0,0,0-6,1.57,7,7,0,0,0-3.94,8.07v0a6.33,6.33,0,0,0,.42,1.25L55,95.21a5.76,5.76,0,0,0-8.34,1.45,6,6,0,0,0-.78,4.79A53.54,53.54,0,0,1,47,106.78c.09.62.15,1.1.2,1.5A9.07,9.07,0,0,0,43,109.91a31.22,31.22,0,0,0,.54-5.58,2.86,2.86,0,0,0-5.31-1.47c-3,5-6.56,8-10.09,8.31a8.6,8.6,0,0,1-2.54-.21c-.78-.31-3.68-3.46-3.68-13.13,0-3.1.2-7,.6-11.55a11.88,11.88,0,0,0-2.8-9,8.28,8.28,0,0,0-6.14-2.72h-.06c-6.47,0-7,6.64-7.25,9.82-.3,3.75-.45,7.35-.45,10.69,0,19,4.76,28.83,15,30.81a27.12,27.12,0,0,0,5.07.5,16.74,16.74,0,0,0,13.38-7l.31-.44a8.9,8.9,0,0,0,2.12,4.19,8.11,8.11,0,0,0,6.23,2.77h.58a9,9,0,0,0,6.42-3c.19-.21.36-.42.53-.63l.28.27a5.69,5.69,0,0,0,4.43,1.67,2.88,2.88,0,0,0,.25,2.83,2.83,2.83,0,0,0,2.34,1.22,2.78,2.78,0,0,0,1.19-.26c6.34-2.9,15-6.88,19.06-13.72a25.72,25.72,0,0,0,3.36-10.13,5.94,5.94,0,0,0,3.45,2.16,5.6,5.6,0,0,0,1.21.13A5.94,5.94,0,0,0,95.7,104Zm-32.16,9.84a22.63,22.63,0,0,0-5.6-3.64c0-.18,0-.38.05-.59l1.14.13a5.63,5.63,0,0,0,4.24-1.26,5.73,5.73,0,0,0,.38-8.44,5.63,5.63,0,0,0-1.38-1,6.25,6.25,0,0,0,1.2-.32A13.83,13.83,0,0,1,68,97.52a13.34,13.34,0,0,1,2.17,0,4.41,4.41,0,0,1,2.19.85A3.46,3.46,0,0,1,73.63,101c-.24,7.32-3.6,12.43-8.11,17.36A5.88,5.88,0,0,0,63.54,113.85Z"/><path class="cls-8" d="M157.32,92.63A13.64,13.64,0,0,0,152,89a5.7,5.7,0,0,0,2.63-3.89,2.42,2.42,0,0,0,0-.47,5.46,5.46,0,0,0-4-5.38c-.47-.13-1.37-.51-2.16-.84A21.64,21.64,0,0,0,144.55,77c-3.29-.63-6,1-7.17,4.32a3.85,3.85,0,0,0-.23,1.13c-.17,3.48,1.42,5.23,2.92,6.11a30.91,30.91,0,0,0-6.66,2.94,6.42,6.42,0,0,0-3.1,5.91,4.82,4.82,0,0,0-2.71-.67,5.12,5.12,0,0,0-3.71,1.83,5.55,5.55,0,0,0-1.26,4.26l0,.34a12,12,0,0,0-1.36.86c-.14-.18-.28-.36-.44-.53a4.77,4.77,0,0,0-3.52-1.46,4.48,4.48,0,0,0-.81.1,45.28,45.28,0,0,0,1.12-10.27,79.76,79.76,0,0,0-.58-9.22,7.44,7.44,0,0,0-7.71-6.75,7.12,7.12,0,0,0-5,2.6,8.2,8.2,0,0,0-1.79,6.17,71.5,71.5,0,0,1,.55,8.43c0,9.39-4.06,18.76-12.42,28.65a2.86,2.86,0,0,0,2.18,4.7,3,3,0,0,0,.83-.13c8.59-2.64,15-7.6,19.07-14.48,0,1.33.06,2.78.09,4.34a5.15,5.15,0,0,0,1.63,3.67A4.71,4.71,0,0,0,118,121.1a4.89,4.89,0,0,0,4.32-3.45c.12-.37.25-.73.39-1.07a23.25,23.25,0,0,1-2.9,7.15,2.85,2.85,0,0,0,3.55,4.11,16,16,0,0,0,6.6-5,3.15,3.15,0,0,0,.69,0c8.07-.7,9.75-5.88,10-8.91v0a10.83,10.83,0,0,0-5.29-10.83,6.39,6.39,0,0,0,4.17-.71c.54-.3,1-.6,1.52-.89a11.29,11.29,0,0,1,2.76-1.37,3.27,3.27,0,0,1,1.37,0h.15a4.36,4.36,0,0,1,2.19.81,1.51,1.51,0,0,1,.72,1.06l0,.15a1.74,1.74,0,0,1,.11.89c-.58,6.57-5,12.26-9.26,17.77a2.85,2.85,0,0,0,2.26,4.6,2.9,2.9,0,0,0,1.3-.32c3-1.55,10.49-5.79,14.47-11.71a19.62,19.62,0,0,0,3.52-11.64h0A13.12,13.12,0,0,0,157.32,92.63Z"/><path class="cls-16" d="M28.41,114a11.35,11.35,0,0,1-3.68-.33c-2.4-.78-5.67-5.41-5.67-15.85q0-4.8.61-11.8c.39-4.45-2.09-8.65-6.14-8.62-3.53,0-4.11,3.3-4.42,7.19q-.45,5.55-.45,10.47c0,19.68,5,26.53,12.65,28a23.94,23.94,0,0,0,4.53.44,13.92,13.92,0,0,0,11.1-5.88c2.33-3.12,3.71-8.45,3.73-13.33C37.39,109.86,33.08,113.56,28.41,114ZM66.64,82.16a24.83,24.83,0,0,0,6.91.77c1.9-.06,4.09-.38,4.48-2.5a3.58,3.58,0,0,0-2.27-4.23,44,44,0,0,0-7.32-2.46c-2.63-.5-4.14.94-4.92,3.14a1.37,1.37,0,0,0-.08.35C63.32,79.55,64,81.49,66.64,82.16ZM54.78,112a19.27,19.27,0,0,0,.37-5.48c1.16,0,2.6.18,4.32.38a2.83,2.83,0,1,0,.18-5.65l-5,.24c-.07-.7-.13-1.34-.2-1.93a3,3,0,0,0-3.39-2.67,3.06,3.06,0,0,0-2.4,3.82c.42,1.62.81,3.5,1.15,5.65a27,27,0,0,1,.33,4.77,9.43,9.43,0,0,0-1.49-.11,6.62,6.62,0,0,0-4.52,1.58,5.42,5.42,0,0,0-2,4.38,6.11,6.11,0,0,0,1.6,4.2A5.3,5.3,0,0,0,48.3,123a6.06,6.06,0,0,0,4.46-2.08,5.42,5.42,0,0,0,1.44-3.17,17.58,17.58,0,0,1,3.5,2.7,2.8,2.8,0,0,0,4.29-.3l.14-.18a3,3,0,0,0-.47-4A20.06,20.06,0,0,0,54.78,112Zm-6.7,6.34a1.4,1.4,0,0,1-1.14-.33,1.23,1.23,0,0,1-.29-1.14q.1-1.32,1.59-1.32c.82,0,1.23.3,1.23.88C49.47,117.69,49,118.33,48.08,118.36Zm94.49-31.83c1.7.42,4.33,1,6.24.65a3.31,3.31,0,0,0,3-2.63A2.64,2.64,0,0,0,149.9,82c-1.48-.41-4.34-1.89-5.89-2.18-2-.39-3.29.67-3.95,2.51a.66.66,0,0,0-.06.27C139.9,84.53,140.51,86,142.57,86.53ZM93.44,102.27q3.68-4.77,6.38-7.8l-5.47,1.8a50.59,50.59,0,0,1,.35-9.87,4.38,4.38,0,0,0-3.78-5,4.27,4.27,0,0,0-4.33,4.37A57.86,57.86,0,0,0,87.88,101,3.12,3.12,0,0,0,93.44,102.27Zm61.76-7.74A12,12,0,0,0,148.72,91a10.44,10.44,0,0,0-2.41-.35c-4.2-.11-7.69,1.23-11.49,3.39a3.54,3.54,0,0,0-1.46,4.24.26.26,0,0,1,0,.08,3.41,3.41,0,0,0,4.82,1.59c1.85-1,3.27-2.11,5-2.54a6.26,6.26,0,0,1,2.48-.1,7.11,7.11,0,0,1,3.64,1.36,4.34,4.34,0,0,1,1.75,2.57,4.51,4.51,0,0,1,.24,2.06c-.66,7.41-5.44,13.57-9.84,19.26,4.78-2.44,10.43-6.35,13.4-10.76a16.81,16.81,0,0,0,3-10.09A10.28,10.28,0,0,0,155.2,94.53Zm-24.1,10.18a1.15,1.15,0,0,1-1-1.21v-1.42a2.37,2.37,0,0,0-2.37-2.49,2.51,2.51,0,0,0-2.25,2.89l.18,1.45a1.3,1.3,0,0,1-.77,1.35,9.66,9.66,0,0,0-3.54,2.59,10,10,0,0,0-2.25,4.15l.32-4.86a2,2,0,0,0-2-2.26,2.13,2.13,0,0,0-2,2.27c.1,2.34.19,5.33.25,9a2,2,0,0,0,3.93.65,12.14,12.14,0,0,1,2.41-4.43c1.18-1.25,3-2.64,3.81-2.17.42.15.28,1.15.27,1.87a25.35,25.35,0,0,1-3.86,13.16q7.87-3.36,8-12.37c0-1-.22-2.57.18-2.88.32-.49,1.62.14,2.28.8a4.11,4.11,0,0,1,1.13,3.26q0,3.16-3.42,6,6.91-.6,7.45-6.34a8.08,8.08,0,0,0-2.32-6.92A6.74,6.74,0,0,0,131.1,104.71ZM80.33,90.94c-1.93-2.2-4-2.86-6.6-3.56A9.87,9.87,0,0,0,71.32,87a28,28,0,0,0-11.54,1.74,4.23,4.23,0,0,0-2.2,4.62.29.29,0,0,1,0,.09,3.68,3.68,0,0,0,5,2.56,16.47,16.47,0,0,1,5.35-1.38,15.15,15.15,0,0,1,2.66,0,7.22,7.22,0,0,1,3.49,1.36,6.3,6.3,0,0,1,2.42,5.05c-.36,10.7-6.49,17-13.77,24.23,6.29-2.88,14.22-6.54,17.79-12.58a22.93,22.93,0,0,0,3-14A12.78,12.78,0,0,0,80.33,90.94Zm29.22-12.18a4.83,4.83,0,0,0-4.17,5.58,75.13,75.13,0,0,1,.57,8.78c0,11.3-5.43,21.42-13.09,30.48,13.56-4.17,21.94-14.7,21.94-31.72a76.31,76.31,0,0,0-.55-8.89A4.6,4.6,0,0,0,109.55,78.76Z"/><path class="cls-8" d="M186.63,111.76c0-.08-.06-.18-.09-.29-.35-1-1.73-1.25-2.1-1.3a2,2,0,0,0-.76-.19,4,4,0,0,0-1.43-.68l-1-.27a33.23,33.23,0,0,1-4.06-1.42,1.48,1.48,0,0,0-.76-.29c-.18,0-.66-.17-1.3-.37a18.34,18.34,0,0,0-2.11-.56l-.26,0a1.52,1.52,0,0,0-.42-.06,2.19,2.19,0,0,0-1.19.31l-.38.2a1.25,1.25,0,0,0-.6.66l-.26.65c-.37.93-1.51,4.3-1.66,5a3,3,0,0,1-.07.31.82.82,0,0,1,.16-.3c-.17.25-.56,1.22-3.56,10-.68,2-1.18,3.41-1.3,3.7a2.91,2.91,0,0,0-.17.44,5,5,0,0,0-.14.53c-.07.28-.22.81-.33,1.13a3.07,3.07,0,0,0-.25,1.33.06.06,0,0,1,0,0,3.23,3.23,0,0,0,0,1.16l.05.31a1.28,1.28,0,0,0,.84,1l1.58.55a15,15,0,0,0,2.12.65,1.31,1.31,0,0,0,.35.19l.42.14a3.24,3.24,0,0,0,.49.13,5,5,0,0,0,2,.61,28.62,28.62,0,0,0,3.3,1.21,21.3,21.3,0,0,0,3.54,1,2.36,2.36,0,0,0,.46,0l.35,0a1.3,1.3,0,0,0,1-.86l.26-.8a7.2,7.2,0,0,0,.4-1.57,5.11,5.11,0,0,0,.52-1.29,8.26,8.26,0,0,0,.29-1h0c0-.05,0-.14.07-.26a3.32,3.32,0,0,0,.13-.72,6.1,6.1,0,0,0,.86-2,22.38,22.38,0,0,0,.94-3.54,2,2,0,0,0,.51-.91,1.62,1.62,0,0,1,.06-.17,2.05,2.05,0,0,1-.14.2,4.7,4.7,0,0,0,.68-2.07c0,.13,0,.22,0,.23a3.22,3.22,0,0,1,.12-.47,5.09,5.09,0,0,0,.19-1,3.16,3.16,0,0,0,.59-1c.19-.48.47-1.25,1-2.84.37-1.08.68-1.92.75-2.12a6.48,6.48,0,0,0,.31-1C186.83,113.37,187.11,112.38,186.63,111.76Z"/><path class="cls-17" d="M174.48,116.76a2,2,0,0,0-.94-.1.09.09,0,0,1-.09-.12c.05-.18.09-.32.11-.41l.06-.18a.14.14,0,0,1,.18-.08l.12.06c.45.22.86.25,1.05.07a1,1,0,0,0,.2-.89,2.55,2.55,0,0,0-1-.41.15.15,0,0,1-.1-.18l.21-.66a.13.13,0,0,1,.17-.08,8.31,8.31,0,0,0,.87.24c.42,0,.6-.52.59-.82a.56.56,0,0,0-.43-.56l-.18-.06a.07.07,0,0,1,0-.13c.43-.3.73-.79.67-1a.82.82,0,0,0-.62-.54c-.29-.06-.48.42-.56.67a2.71,2.71,0,0,1-.4.57.2.2,0,0,1-.21.06h0A.19.19,0,0,1,174,112a8.42,8.42,0,0,1,0-1c0-.38-.1-.63-.41-.65a.53.53,0,0,0-.63.46,2.07,2.07,0,0,0,.19,1,.05.05,0,0,1-.06.07,3.58,3.58,0,0,0-1-.2c-.5.09-.67,1.09-.35,1.32a3,3,0,0,0,1.09.34.13.13,0,0,1,.1.16l-.17.69a.15.15,0,0,1-.18.11,6.47,6.47,0,0,1-.76-.24c-.3-.13-.6-.09-.68.46s.47.5.95.67l.25.09a.13.13,0,0,1,.08.16c0,.11-.06.21-.09.29s-.11.36-.17.58a.26.26,0,0,1-.29.18,12.7,12.7,0,0,0-1.34-.17c-.31,0-.45.42-.54.77,0,0-.21.63,0,.9s1.09-.24,1.47-.27h.12c.05,0,.09.05.08.1a3.63,3.63,0,0,1-.25.57,2.59,2.59,0,0,1-1.37,1.31c-.44.13-.57.26-.29.4a2.26,2.26,0,0,0,2.63-.91,13.7,13.7,0,0,0,.59-1.41.26.26,0,0,1,.22-.17c.38,0,.73-.06.94-.1C174.82,117.39,174.69,116.92,174.48,116.76Z"/><path class="cls-17" d="M181.05,119.46c.31-1.08,1.58-4.29,1.71-5.06a1,1,0,0,0-.64-1.28c-.39-.13-1.33-.5-1.87-.62s-.71.15-.71.15c0-.34-.51-.64-1-.77a7,7,0,0,0-2-.33c-.41.1-.41,1-.37,1.38s.36.36.72.45a2,2,0,0,1,.73.4,9.19,9.19,0,0,1-.67,2.55c-.21.61-1,3.42-1.14,3.69a.5.5,0,0,1-.64.29c-.27-.09-.62-.44-.95-.35s.43.91.63,1.25a1.45,1.45,0,0,0,1.23.62c.44-.07.75-.91.91-1.42s1.84-5.46,1.91-5.75.23-.89.5-.89a2.88,2.88,0,0,1,1.37.75,9.85,9.85,0,0,1-.46,2.4c-.16.52-1,3.75-1.34,4.33s-.75.3-1.13.18-.5.08-.24.46a2.67,2.67,0,0,0,1.74,1C180,123,180.74,120.55,181.05,119.46Z"/><path class="cls-17" d="M176.6,115.89c.43-.33.15-.78-.13-1.08s-.56-.41-.68-.3a.69.69,0,0,0,0,.65C175.84,115.36,176.17,116.21,176.6,115.89Z"/><path class="cls-17" d="M175,118.48c.47.57,1.07-.51,1.27-1.1s-.11-.66-.25-.58-.76.59-1.09.88C174.93,117.68,174.54,117.91,175,118.48Z"/><path class="cls-17" d="M179.77,117c.43-.32.25-.8,0-1.1s-.56-.34-.67-.23-.09.43,0,.63S179.34,117.34,179.77,117Z"/><path class="cls-17" d="M179.42,118.44c.2-.59-.19-.68-.33-.6a6.44,6.44,0,0,0-.92.9.46.46,0,0,0,0,.64C178.51,120,179.22,119,179.42,118.44Z"/><path class="cls-17" d="M170.34,122.51c.49.39,1.32.23,1.46-.28.06-.25-.36-.6-.72-.86a4.42,4.42,0,0,0-1.32-.74c-.19,0-.3.26-.24.66A2.1,2.1,0,0,0,170.34,122.51Z"/><path class="cls-17" d="M171.84,125.54l-.8-.27a.08.08,0,0,1,0-.16c.27-.07.64-.2.66-.38s-.4-.55-.4-.55c.58.14,1.16-.1,1-.52s-.31-.31-.77-.37a19.38,19.38,0,0,1-2.13-.59c-.47-.13-.69-.52-.94-.52s-.35.42-.3.86.54.54.54.54a1.2,1.2,0,0,0,.11.86.09.09,0,0,1-.12.13c-.57-.19-1.38-.62-1.55-.41s.23,1.06.62,1.31a19,19,0,0,0,2.47.4c.88.23,1.43.85,1.86.64S172.21,125.66,171.84,125.54Zm-1.25-1.12a1.13,1.13,0,0,1-.52.3c-.17,0-.59-.45-.39-.86a5.6,5.6,0,0,1,.58.15C170.4,124.06,170.71,124.3,170.59,124.42Z"/><path class="cls-17" d="M170.82,126.72c-.22-.37-.94-.36-1.59-.56s-.8-.27-1-.22a.59.59,0,0,0-.46.4c-.14.31-.51,1.61-.78,2.08a2.6,2.6,0,0,1-.64.84c-.22.14-.35.41.21.61.33.12.56.27.93.08s.57-1,.66-1.1.87.1.81.31c-.14.55-.55.93-.47,1.18s.93.54,1.14.47.17-.12.26-.47S171,127.09,170.82,126.72Zm-1.57,1.59c-.05.15-.34,0-.51,0s-.38-.11-.31-.36.14-.21.14-.21a2.76,2.76,0,0,1,.73.2C169.38,128,169.3,128.17,169.25,128.31Zm.12-.84c-.21,0-.76-.1-.73-.27s.06-.38.13-.37.46.11.6.17.29.06.25.23S169.5,127.48,169.37,127.47Z"/><path class="cls-17" d="M177.49,130.63c.1-.66-.18-.82-.26-.47a2.61,2.61,0,0,1-1,1.39,7,7,0,0,1-3.25-1.06c-.59-.51.26-2.14.39-2.52s.43-.35.94-.2,2,.53,2.22.24.6-1.46.39-1.78-.72-.33-1.3-.49-1.26-.33-1.28-.48a1.08,1.08,0,0,1,.09-.31.21.21,0,0,1,.25-.11c.52.15,1.27.36,1.52.4s.33-.4.25-.72-.32-.22-.73-.32a4.65,4.65,0,0,1-.64-.2.24.24,0,0,1-.16-.3,1.67,1.67,0,0,0,.15-.82c-.15-.34-.95-.64-1.22-.71s-.35.72-.46,1.33-.7,1.65-.76,2,.88.5,1.89.71.64.33.68.65-.18.3-1,.15-1.19-.52-1.62-.39-1,2.26-1.2,3.82,3.71,2.81,5,2.62S177.39,131.3,177.49,130.63Z"/><path class="cls-17" d="M175.32,130.26c-.38-.11-1.33-.34-1.33-.34-.61.15.15.65.66.8s1,.26,1.21.1S175.7,130.36,175.32,130.26Z"/><path class="cls-17" d="M174.78,129.81c.47.14.88.24,1.1.09s-.14-.42-.49-.51-1.2-.31-1.2-.31C173.63,129.22,174.32,129.68,174.78,129.81Z"/><path class="cls-17" d="M175.07,129c.37.1.71.18.91,0s-.1-.4-.38-.48l-1-.23C174.15,128.5,174.69,128.91,175.07,129Z"/><path class="cls-17" d="M164.75,128.09a3.82,3.82,0,0,1,.24-.49,4.5,4.5,0,0,0,.37-.9,3.29,3.29,0,0,1,.16-.57,1.13,1.13,0,0,0,.09-.32c0-.14,1.34-4.22,1.45-4.35a12.51,12.51,0,0,0,.56-1.48,13.89,13.89,0,0,1,.72-1.84,4.41,4.41,0,0,0,.34-.81l.27-.89a7.41,7.41,0,0,0,.24-1.06,3.38,3.38,0,0,1,.59-1.52,9.35,9.35,0,0,0,.87-2.39,7.47,7.47,0,0,1,.55-1.55.9.9,0,0,0,.11-.38.54.54,0,0,1,.16-.38.74.74,0,0,0,.14-.21c0-.2.12-.26.42-.35.53-.17.62-.15.71.15l.09.26.24-.1c.17-.08.26-.08.3,0a.13.13,0,0,0,.18.06c.07,0,.13,0,.14,0s5.14,1.88,7.72,2.71c1,.32,1.19.36,1.34.28s.21-.07.37.07l.3.25c.07,0,.13.12.13.17s.15.13.34.19a1,1,0,0,1,.37.19,10.72,10.72,0,0,1-.68,2.49c-.27.83-.49,1.54-.49,1.57s-.22.66-.51,1.4a7.74,7.74,0,0,0-.58,1.83,6.8,6.8,0,0,1-.47,1.56,21.19,21.19,0,0,0-.91,2.56,5,5,0,0,1-.27.78c-.15.4-.52,1.45-.8,2.33-1.13,3.5-1.64,5-1.78,5.26a.94.94,0,0,0-.16.55h0a2.49,2.49,0,0,1-.47,1.29.58.58,0,0,1-.25.12,16.8,16.8,0,0,1-3.4-1l-2.67-.9-1.28-.42-.87-.3-.83-.28a30.7,30.7,0,0,0-3.21-1.1c-.32,0-.38-.08-.42-.23a1.14,1.14,0,0,1,.07-.81,2.23,2.23,0,0,0,.21-.51,2.32,2.32,0,0,1,.2-.51c.08-.1.09-.17.05-.25a.21.21,0,0,1,0-.19Zm-.27-.54c0,.13-.08.29-.12.44-.07.32-.24.88-.36,1.25s-.22.7-.19.8a1.26,1.26,0,0,1,0,.45,1.54,1.54,0,0,0,0,.64l.05.31,1.18.41c2.48.87,2.33.83,2.63.63a.94.94,0,0,1,.3-.16s0,.12,0,.26l0,.25.42.14c.24.08.44.11.47.07s.08,0,.11.06a3.49,3.49,0,0,0,1.81.56c.2,0,.25,0,.3.09a15.55,15.55,0,0,0,3.14,1.16c2.85,1,3.1,1,3.42,1l.35,0,.27-.8a4.63,4.63,0,0,0,.35-1.53c0-.2,0-.23.14-.31s.16-.19.43-1c.16-.5.29-.92.28-.92s0-.15.1-.34a1.66,1.66,0,0,0,.07-.6c0-.28.12-.6.25-.56s.32-.48.67-1.54a19.67,19.67,0,0,0,.89-3.29c0-.45,0-.55.27-.68s.2-.18.28-.46a1.78,1.78,0,0,1,.17-.41,5.23,5.23,0,0,0,.38-1.18,5.33,5.33,0,0,1,.16-.66,3.78,3.78,0,0,0,.15-.89.66.66,0,0,1,.12-.51c.07-.1.17-.18.22-.16s.33-.51,1.34-3.39c.43-1.22.79-2.22.8-2.23s.12-.37.24-.81c.2-.71.23-1,.13-1a2.87,2.87,0,0,1-.25-.64c-.07-.19-.61-.42-1.08-.45a.68.68,0,0,1-.38-.11.56.56,0,0,0-.36-.07c-.16,0-.3,0-.31,0s-.06,0-.09,0-.07,0-.08-.08-.58-.51-1.09-.64l-1-.27a28.21,28.21,0,0,1-4.51-1.63s-.1-.06-.13,0-.73-.18-1.55-.43a17.62,17.62,0,0,0-1.89-.51l-.45-.07a.07.07,0,0,0-.06,0,.37.37,0,0,1-.14,0,2.18,2.18,0,0,0-.48.18l-.38.2-.26.65c-.38,1-1.48,4.22-1.6,4.75a2.66,2.66,0,0,1-.14.5c-.06.07-1.9,5.34-3.37,9.61-.7,2.06-1.31,3.79-1.36,3.86a1.53,1.53,0,0,0-.1.25Z"/></g></g></svg>